<?xml version="1.0" encoding="utf-8"?>
<!-- Generator: Adobe Illustrator 23.0.0, SVG Export Plug-In . SVG Version: 6.00 Build 0)  -->
<svg version="1.1" id="Layer_1" xmlns="http://www.w3.org/2000/svg" xmlns:xlink="http://www.w3.org/1999/xlink" x="0px" y="0px"
	 viewBox="0 0 566.9 566.9" style="enable-background:new 0 0 566.9 566.9;" xml:space="preserve">
<style type="text/css">
	.st0{fill:#FFFFFF;}
	.st1{fill:url(#SVGID_1_);}
	.st2{fill:#8B7DC6;stroke:#595370;stroke-width:3;stroke-miterlimit:10;}
	.st3{fill:url(#SVGID_2_);}
	.st4{fill:url(#SVGID_3_);}
	.st5{fill:url(#SVGID_6_);stroke:#00541A;stroke-miterlimit:10;}
	.st6{fill:#B586B4;stroke:#FFFFFF;stroke-miterlimit:10;}
	.st7{fill:#00541A;stroke:#00541A;stroke-miterlimit:10;}
	.st8{fill:url(#SVGID_10_);}
	.st9{fill:#F16821;stroke:#F16821;stroke-miterlimit:10;}
	.st10{fill:#18602C;}
	.st11{fill:#1B592C;}
	.st12{fill:#669DD8;stroke:#669DD8;stroke-miterlimit:10;}
	.st13{fill:#2F89FC;stroke:#2F89FC;stroke-miterlimit:10;}
	.st14{fill:none;stroke:#FFFFFF;stroke-miterlimit:10;}
	.st15{fill:#EF5120;}
	.st16{fill:url(#SVGID_11_);stroke:url(#SVGID_12_);stroke-miterlimit:10;}
	.st17{fill:#FFFFFF;stroke:#FFFFFF;stroke-width:3;stroke-miterlimit:10;}
	.st18{fill:#136C9E;}
	.st19{fill:url(#SVGID_15_);stroke:#2F89FC;stroke-miterlimit:10;}
	.st20{fill:url(#SVGID_16_);stroke:#2F89FC;stroke-miterlimit:10;}
	.st21{fill:#582F87;}
	.st22{fill:#6B4997;}
	.st23{fill:#923C8E;}
	.st24{fill:#E20614;}
	.st25{fill:#00A239;}
	.st26{fill:#CCCC10;}
	.st27{fill:#DCD83D;}
	.st28{fill:#18B2AD;}
	.st29{fill:#E52C3B;}
	.st30{fill:#9C4D97;}
	.st31{fill:#3EAC51;}
	.st32{fill:none;}
	.st33{fill:#57BCBB;}
	.st34{opacity:0.65;fill:#D3D2BA;enable-background:new    ;}
	.st35{fill:none;stroke:#DD0A0A;stroke-miterlimit:10;}
	.st36{fill:#E0D007;stroke:#DBCF37;stroke-miterlimit:10;}
	.st37{opacity:0.66;fill:#D3D2BA;enable-background:new    ;}
	.st38{fill:none;stroke:#020200;stroke-miterlimit:10;}
	.st39{fill:#DD0A0A;stroke:#DD0A0A;stroke-miterlimit:10;}
	.st40{fill:#DD0A0A;}
	.st41{fill:none;stroke:#050505;stroke-miterlimit:10;}
	.st42{fill:#050505;}
	.st43{fill:#020202;}
	.st44{fill:#020202;stroke:#020202;stroke-miterlimit:10;}
	.st45{fill:#5E0606;}
	.st46{fill:#FFFFFF;stroke:#302C0C;stroke-miterlimit:10;}
	.st47{fill:#E5E54C;}
	.st48{fill:#9E9941;}
	.st49{fill:#EFD90A;}
	.st50{fill:none;stroke:#DD0A0A;stroke-width:3;stroke-miterlimit:10;}
	.st51{fill:url(#SVGID_22_);}
	.st52{fill:url(#SVGID_23_);}
	.st53{fill:url(#SVGID_24_);stroke:#F16821;stroke-miterlimit:10;}
	.st54{fill:url(#SVGID_25_);stroke:#00541A;stroke-miterlimit:10;}
	.st55{fill:#D80909;stroke:#F16821;stroke-miterlimit:10;}
	.st56{fill:url(#SVGID_26_);}
</style>
<path class="st0" d="M311.9,174.2c0,0,13.1,1.3,16.8,2.1"/>
<radialGradient id="SVGID_1_" cx="286.3506" cy="286.632" r="336.9183" gradientUnits="userSpaceOnUse">
	<stop  offset="0.5168" style="stop-color:#BC197E"/>
	<stop  offset="1" style="stop-color:#4C092F"/>
</radialGradient>
<rect x="-65.9" y="-34.2" class="st1" width="704.6" height="641.6"/>
<path class="st2" d="M184.7,394.8c0,0-7.7,19.3,13.5,17.4l124.4-124.4L310,275.2"/>
<g>
	
		<radialGradient id="SVGID_2_" cx="380.9056" cy="355.8904" r="97.9" gradientTransform="matrix(1 0 0 -1 0 567.2126)" gradientUnits="userSpaceOnUse">
		<stop  offset="2.793296e-02" style="stop-color:#F2F227"/>
		<stop  offset="0.4342" style="stop-color:#F2F027"/>
		<stop  offset="0.5806" style="stop-color:#F1E925"/>
		<stop  offset="0.6849" style="stop-color:#EFDE23"/>
		<stop  offset="0.7693" style="stop-color:#EDCD20"/>
		<stop  offset="0.8416" style="stop-color:#EBB71B"/>
		<stop  offset="0.9056" style="stop-color:#E79B16"/>
		<stop  offset="0.962" style="stop-color:#E37C10"/>
		<stop  offset="1" style="stop-color:#E0620B"/>
	</radialGradient>
	<circle class="st3" cx="380.9" cy="211.3" r="97.9"/>
	
		<radialGradient id="SVGID_3_" cx="381" cy="355.9126" r="101.6639" gradientTransform="matrix(1 0 0 -1 0 567.2126)" gradientUnits="userSpaceOnUse">
		<stop  offset="2.793296e-02" style="stop-color:#F2F227"/>
		<stop  offset="0.4342" style="stop-color:#F2F027"/>
		<stop  offset="0.5806" style="stop-color:#F1E925"/>
		<stop  offset="0.6849" style="stop-color:#EFDE23"/>
		<stop  offset="0.7693" style="stop-color:#EDCD20"/>
		<stop  offset="0.8416" style="stop-color:#EBB71B"/>
		<stop  offset="0.9056" style="stop-color:#E79B16"/>
		<stop  offset="0.962" style="stop-color:#E37C10"/>
		<stop  offset="1" style="stop-color:#E0620B"/>
	</radialGradient>
	<path class="st4" d="M286.7,211.3c-0.2,6.2,0.2,12.4,1.2,18.5s2.3,12.3,4.6,18.1c1.2,2.9,2.4,5.8,4.1,8.4c0.9,1.3,2.2,2.4,3.3,3.5
		c1.1,1.1,2.1,2.3,3,3.6c0.9,1.2,1.7,2.5,2.6,3.8s1.8,2.5,2.7,3.8l2.8,3.7c1,1.2,2,2.4,3,3.6c2.2,2.2,4.1,4.7,7.3,5.7
		c0.7,0.3,1.4,0.8,2,1.2l1.9,1.3c1.3,0.8,2.5,1.8,3.8,2.7l3.8,2.6c1.3,0.8,2.6,1.7,3.9,2.5s2.6,1.7,4,2.5c1.4,0.7,2.7,1.6,4.1,2.2
		c2.8,1.3,5.7,2.5,8.7,3.3c1.5,0.3,3.1,0.7,4.6,0.8c1.6,0.1,3.1,0.3,4.7,0.4l2.3,0.2c0.8,0.1,1.5,0.2,2.3,0.2c1.5,0.1,3,0.4,4.6,0.6
		c1.5,0.2,3,0.5,4.6,0.8c1.5,0.2,3.1,0.6,4.6,0.9c1.6,0.2,3.1,0.4,4.7,0.5c1.6,0,3.1,0,4.7-0.1c1.6-0.2,3.1-0.6,4.6-1.2
		s2.9-1.5,4.4-2c1.4-0.6,2.9-1.1,4.4-1.5s2.9-0.8,4.4-1.2c3-0.8,5.9-1.8,8.7-2.9c11.5-4.4,22.1-11.1,31.2-19.6
		c4.5-4.3,8.6-9,12.2-14.1c0.9-1.3,1.8-2.6,2.5-4c0.6-1.4,1.3-2.8,1.9-4.3s1.2-2.9,1.7-4.4s1-2.9,1.4-4.4s0.9-3,1.2-4.5
		c0.4-1.5,0.7-3,1.1-4.4c0.3-0.7,0.5-1.4,1.2-2s0.8-1.4,1-2.1c0.4-1.5,0.9-3,1.3-4.5c0.2-0.8,0.3-1.5,0.4-2.3s0.3-1.5,0.4-2.3
		c0.2-1.5,0.4-3.1,0.4-4.6c0-1.6-0.1-3.1-0.1-4.6c0-0.8-0.1-1.5-0.1-2.3s0.1-1.5,0.2-2.3l0.2-4.6c0-1.5,0-3.1,0-4.6
		s-0.2-3.1-0.3-4.6c-0.1-1.5-0.4-3.1-0.6-4.6c-1-6.1-2.9-12.1-5.2-17.9c-0.6-1.5-1.2-2.9-1.8-4.3c-0.6-1.4-1.4-2.8-2-4.2
		s-1.2-2.9-1.9-4.3c-0.7-1.4-1.6-2.7-2.8-3.8c-1.2-1.1-2.8-1.9-3.7-3.1c-1-1.2-1.9-2.5-2.7-3.7c-0.9-1.3-1.8-2.5-2.6-3.9l-2.7-3.9
		c-1.9-2.5-4-4.9-6.3-7c-1.3-0.9-2.8-1.5-4.4-2c-1.6-0.4-3.3-0.7-4.8-1.2c-0.8-0.2-1.5-0.5-2.2-0.8s-1.3-0.7-2-1
		c-1.4-0.7-2.7-1.4-4-2.1c-1.4-0.7-2.6-1.5-4-2.2c-1.3-0.7-2.7-1.5-4-2.2l-2.1-1c-0.7-0.3-1.4-0.7-2.1-1c-1.4-0.6-2.8-1.2-4.3-1.7
		s-2.9-1.1-4.4-1.6s-2.9-1-4.4-1.4c-6-1.6-12.3-2-18.5-1.4l-4.6,0.5l-4.6,0.7c-1.5,0.3-3,0.6-4.5,0.9c-1.5,0.4-3,0.8-4.5,1
		c-1.5,0.3-3,0.6-4.5,0.8c-1.5,0.2-3,0.4-4.6,0.5c-0.8,0-1.5,0.2-2.3,0.3l-1.2,0.2c-0.4,0.1-0.8,0.1-1.2,0.1
		c-0.9-0.1-1.5,0.3-2.2,0.7c-0.7,0.3-1.3,0.8-2,1.3l-4.1,2.2c-1.4,0.7-2.6,1.6-4,2.3c-1.3,0.8-2.7,1.5-4,2.2c-1.4,0.7-2.7,1.4-4.2,2
		c-2.8,1.4-5.9,2.4-8,4.8c-0.7,1.6-2,2.4-3.2,3.5l-3.3,3.3c-4.3,4.4-8.3,9.2-11.7,14.4l-1.3,2c-0.4,0.7-0.9,1.3-1.3,1.9
		c-0.8,1.3-1.6,2.7-2.3,4c-0.7,1.4-1.4,2.8-2.1,4.2c-0.6,1.4-1.3,2.8-1.8,4.3s-1.1,2.9-1.6,4.4l-0.7,2.2c-0.3,0.7-0.4,1.5-0.4,2.3
		s-0.2,1.5-0.7,2.2s-0.6,1.4-0.8,2.2c-0.4,1.5-0.7,3-0.9,4.5l-0.7,4.6c-0.2,1.5-0.4,3.1-0.8,4.6c-0.3,1.5-0.7,3-0.9,4.6
		c0,0.8-0.3,1.6,0.5,2.3C286.9,209.8,286.7,210.6,286.7,211.3z M279.3,211.3c0-0.8-0.1-1.7,0.3-2.5c0.9-0.8,0.6-1.6,0.6-2.5
		c0-1.6-0.1-3.3-0.2-5c0-1.7,0.2-3.3,0.4-5c0.2-1.6,0.6-3.3,0.9-4.9c0.4-1.6,0.8-3.2,1.2-4.8c0.1-0.8,0.5-1.6,0.4-2.5
		c0-0.9,0.2-1.7,0.6-2.4c0.9-1.5,1.3-3.1,2-4.6c0.6-1.6,1.3-3.1,1.9-4.6s1.4-3,2.1-4.5s1.5-2.9,2.3-4.4s1.7-2.9,2.5-4.3
		c0.8-1.5,1.7-2.9,2.6-4.2c3.7-5.5,7.9-10.7,12.7-15.3l3.7-3.3c1.3-1,2.4-2.3,4.1-2.8c0.4-0.2,0.8-0.3,1.1-0.6
		c0.3-0.3,0.6-0.5,0.9-0.8c0.6-0.5,1.2-1.2,1.8-1.7c1.2-1.1,2.4-2.4,3.6-3.5c1.3-1.1,2.5-2.2,3.9-3.1s2.8-1.8,4.3-2.5
		c3-1.5,6.1-2.7,9.3-3.7c0.8-0.2,1.7-0.3,2.5-0.5s1.6-0.5,2.3-1c0.3-0.3,0.7-0.5,1.1-0.7l1.1-0.6c0.7-0.4,1.5-0.8,2.2-1.2
		c1.5-0.7,3.1-1.5,4.6-2c1.6-0.5,3.2-1,4.9-1.3c1.7-0.3,3.3-0.5,5-0.6l5-0.2c1.7,0,3.4-0.1,5,0l5,0.3c6.6,0.6,13.2,1.4,19.7,2.3
		c1.6,0.2,3.3,0.5,4.9,0.7c1.6,0.3,3.3,0.6,4.9,1s3.2,0.9,4.8,1.3c1.6,0.5,3.2,1,4.8,1.5c1.6,0.5,3.2,1.1,4.8,1.7
		c1.6,0.6,3.1,1.3,4.6,2.1c1.5,0.8,2.9,1.7,4.3,2.6s2.7,2,3.9,3.3c2.2,2.7,3.8,6.1,6.2,8.3c0.6,0.6,1.3,1,1.9,1.5l2,1.4
		c1.3,1,2.6,2,4,3c1.3,1,2.6,2,3.9,3.1c0.6,0.5,1.2,1.1,1.8,1.7c0.6,0.6,1.2,1.1,1.8,1.7c1.1,1.2,2.2,2.5,3.2,3.8
		c0.9,1.4,1.3,3.2,1.8,4.8s1.4,3,2.3,4.4s2,2.6,2.8,4c1.7,2.8,3.1,5.8,4.4,8.8c2.6,6.1,4.5,12.4,5.9,18.8l1,4.9l0.8,4.9l0.7,4.9
		l0.4,5c0,0.8,0.1,1.7,0.1,2.5s-0.1,1.7-0.2,2.5c-0.2,1.7-0.6,3.3-0.8,4.9c-0.3,1.6-0.5,3.3-0.7,4.9c-0.3,1.6-0.6,3.3-0.8,4.9
		c-0.1,0.8-0.3,1.6-0.4,2.5l-0.4,2.5c-0.1,0.8-0.4,1.6-0.2,2.5c0.2,0.9,0.1,1.8-0.1,2.6c-1.1,3.2-2.6,6.2-4.1,9.2
		c-0.8,1.5-1.7,2.9-2.5,4.4c-0.9,1.4-1.8,2.8-2.7,4.2c-1.8,2.8-3.9,5.4-5.5,8.2c-3.5,5.6-7.6,10.8-12.2,15.6
		c-9.1,9.6-20.2,17.4-32.4,22.8c-1.5,0.6-3.1,1.3-4.6,1.9l-2.4,0.8c-0.8,0.3-1.6,0.6-2.4,0.8c-1.6,0.5-3.2,1.1-4.8,1.4
		c-0.8,0.2-1.7,0.3-2.5,0.4s-1.7,0.2-2.5,0.2c-3.4,0-6.8-0.9-10.1-0.4c-1.6,0.1-3.3,0.3-4.9,0.6c-1.6,0.2-3.3,0.5-4.9,0.8
		c-1.6,0.2-3.3,0.4-5,0.6c-1.7,0.1-3.3,0.1-5,0.1c-1.7-0.1-3.3-0.3-5-0.6c-1.6-0.3-3.3-0.8-4.9-1.2c-1.6-0.5-3.2-1.1-4.7-1.7
		c-1.6-0.6-3.1-1.2-4.7-1.7s-3.1-1.1-4.7-1.6s-3.1-1.1-4.7-1.6s-3.1-1.1-4.7-1.7s-3.1-1.2-4.6-1.9c-1.5-0.7-3-1.4-4.5-2.2
		c-1.5-0.8-2.9-1.7-4.3-2.5c-1.4-0.9-2.8-1.9-4.1-2.9c-0.7-0.5-1.3-1.1-1.9-1.6s-1.3-1.1-1.8-1.8c-0.5-0.7-0.9-1.5-1.5-2.1
		c-0.5-0.7-1.2-1.2-1.8-1.7c-1.2-1.1-2.4-2.2-3.7-3.3c-1.2-1.1-2.4-2.3-3.6-3.4c-1.2-1.2-2.4-2.3-3.5-3.6c-1.1-1.2-2.2-2.5-3.2-3.8
		s-2.1-2.6-3-4c-0.8-1.4-1.6-2.9-2.2-4.5c-0.5-1.6-0.9-3.3-1.5-4.9c-0.5-1.6-1.4-3-2.1-4.5c-0.6-1.5-1.4-3-2-4.5
		c-2.6-6-5-12.2-6.6-18.6C280.3,224.6,279.5,218,279.3,211.3z"/>
</g>
<g>
	<g>
		<g>
			<g>
				<defs>
					<path id="SVGID_4_" d="M385.6,212c5.3-14.5-27.6-27.5-27.6-27.5c-35.8-13.8-62.8-10-62.8-10l-4.9,17.8c0,0-2.6,18.1-2.6,23.4
						c0,4.1,7.7-3.2,11.6-4.6c2.7-0.9,5.3-1.8,8-2.7c5.3-1.8,23.7-5.5,27.3-5.7c8.5-0.6,41.8-0.1,47.5,3.1c1.9,1.1,4,2.9,3.5,5"/>
				</defs>
				<clipPath id="SVGID_5_">
					<use xlink:href="#SVGID_4_"  style="overflow:visible;"/>
				</clipPath>
			</g>
		</g>
	</g>
</g>
<g>
	
		<linearGradient id="SVGID_6_" gradientUnits="userSpaceOnUse" x1="381" y1="175.6676" x2="463.9499" y2="175.6676" gradientTransform="matrix(1 0 0 1 0 0.6772)">
		<stop  offset="0.3291" style="stop-color:#00541A"/>
		<stop  offset="0.3507" style="stop-color:#04561D"/>
		<stop  offset="0.4535" style="stop-color:#0F5C26"/>
		<stop  offset="0.5981" style="stop-color:#165F2B"/>
		<stop  offset="1" style="stop-color:#18602C"/>
	</linearGradient>
	<path class="st5" d="M381,212.6c1.6-0.6,3.2,0.8,4.8,1c1.6,0.3,3.1-0.5,4.3-1.5c1.2-1,2.1-2.3,3.2-3.5c3.4-3.6,8.3-5.6,11.9-9
		c4.6-4.5,6.4-10.9,9.3-16.6c3.7-7.3,9.2-13.6,12.2-21.2c1.1-2.9,1.9-6,2.6-9c0.5-2,1-3.9,1.4-5.9c2.6-4.3,3.5-14,7.1-10.6
		c1.4,1.3,4.8,3.1,8,6.4c3.1,3.1,5.6,4,5.9,5.9c0.6,3.9,12.1,15.5,12.1,15.5s-10.8,23.3-43.6,43.2c0,0-30.5,18.1-38.7,5.1"/>
</g>
<path class="st6" d="M381.4,212.5"/>
<path class="st7" d="M439,133"/>
<g>
	<g>
		<g>
			<g>
				<defs>
					<path id="SVGID_7_" d="M382.5,209c-15.4-0.8-18.1,34.5-18.1,34.5c-2.6,38.3,9,63,9,63c0.6,0.5,3.7,0.5,6.2,0.4
						c1.5-0.1,8.3-1,12.1-1.7c0.2,0,0.5-0.1,0.7-0.1s0.5-0.1,0.7-0.1c13.9-1.7,32.8-6.4,30.7-8.5c-4.5-4.6-9.5-8.4-14.2-12.9
						c-1.4-1.3-2.9-2.5-4.4-3.8c-3.8-3.2-7.2-6.8-10.7-10.4c-3.9-4-7.7-8.1-10.6-12.9c-2.2-3.7-3.8-7.7-4.8-11.9
						c-0.7-2.7-1.2-5.4-2.2-8c-1.2-3.1-3-6-3.4-9.2c-0.4-3.4,0.8-6.8,2.1-10.1c0.8-2.2,1.7-4.4,2.5-6.5c0.3-0.9,0.8-1.8,1.7-1.9"/>
				</defs>
				<radialGradient id="SVGID_8_" cx="393.9906" cy="257.9261" r="40.6312" gradientUnits="userSpaceOnUse">
					<stop  offset="0.352" style="stop-color:#76C3E5"/>
					<stop  offset="1" style="stop-color:#136C9E"/>
				</radialGradient>
				<use xlink:href="#SVGID_7_"  style="overflow:visible;fill:url(#SVGID_8_);"/>
				<clipPath id="SVGID_9_">
					<use xlink:href="#SVGID_7_"  style="overflow:visible;"/>
				</clipPath>
			</g>
		</g>
		<radialGradient id="SVGID_10_" cx="393.9906" cy="257.9261" r="40.6312" gradientUnits="userSpaceOnUse">
			<stop  offset="0.352" style="stop-color:#76C3E5"/>
			<stop  offset="1" style="stop-color:#136C9E"/>
		</radialGradient>
		<path class="st8" d="M382.5,209c-15.4-0.8-18.1,34.5-18.1,34.5c-2.6,38.3,9,63,9,63c0.6,0.5,3.7,0.5,6.2,0.4
			c1.5-0.1,8.3-1,12.1-1.7c0.2,0,0.5-0.1,0.7-0.1s0.5-0.1,0.7-0.1c13.9-1.7,32.8-6.4,30.7-8.5c-4.5-4.6-9.5-8.4-14.2-12.9
			c-1.4-1.3-2.9-2.5-4.4-3.8c-3.8-3.2-7.2-6.8-10.7-10.4c-3.9-4-7.7-8.1-10.6-12.9c-2.2-3.7-3.8-7.7-4.8-11.9
			c-0.7-2.7-1.2-5.4-2.2-8c-1.2-3.1-3-6-3.4-9.2c-0.4-3.4,0.8-6.8,2.1-10.1c0.8-2.2,1.7-4.4,2.5-6.5c0.3-0.9,0.8-1.8,1.7-1.9"/>
	</g>
</g>
<path class="st9" d="M441.1,241"/>
<path class="st10" d="M436.8,135.1c0-0.1-7.4-1.9-8.5-2.8c-4.5-3.5-16.7-9.7-17.1-8.9c-0.4-0.9-20.5-8-18.4-3.1
	c1.3,3.2,7.4,62.8,8.9,77.9c0.2,2.2,0.3,3.4,0.3,3.4l4.7-4.3l4.2-7.2l14.9-27l9.4-27.6"/>
<path class="st11" d="M401.9,200.5c-4.2,5.2-0.9-9.2-0.9-8.9s-1.2-11.5-1.2-11.5s-1.4,25.3-4,26.2"/>
<polyline class="st11" points="404,192.7 401.3,189.7 399.2,193.8 398.9,200.4 397.8,203 400.2,203 402.8,201.1 "/>
<path class="st12" d="M345,127.8"/>
<path class="st12" d="M335.5,131.9"/>
<path class="st7" d="M438.3,136.6c0-0.2,2.6,0.5,3.2,0.8c0.5,0.2,2.9,1.7,2.6,1.8l3.1,3.3l2.9,3.8"/>
<path class="st13" d="M408.6,301.8l-10.5,3.7c-5.4,3-13.1,2.6-13.1,2.6l-4.8-1.1"/>
<path class="st10" d="M322.5,284.9c0,0,4.7,4.4,9.5,7s16.9,12.2,18.6,9.4c1.7-2.8,9.8-3,9.6-13c-0.2-10-2.1-60,8-68.8
	c10-8.8,9.1-8.4,9.1-8.4l-2.9-0.3l-4.9,3.9l-8.3,6.5l-4.5,3.4l-5.7,8.5"/>
<path class="st14" d="M329.3,176.4"/>
<path class="st14" d="M302.3,174"/>
<path class="st14" d="M378.6,196.6"/>
<path class="st14" d="M347.9,181"/>
<path class="st15" d="M288.5,217c0,0,0.6,7.5,1.1,15.4s2.9,9.7,2.9,9.7c5.1-2.4,8.7-5.7,16.8-13.6c8.1-7.9,35.5-22.3,41.4-22.6
	c5.9-0.2,12.9-3.2,21.1-0.5c8.3,2.7,14.1,5.7,14.1,5.7l-0.4-1.9l-1.7-2.3l-3.6-2.2l-13.8-4.4l-34.8,1.7l-20.6,5.1l-11.7,4.1"/>
<path class="st14" d="M366.7,206.3"/>
<path class="st14" d="M338.8,214.1"/>
<path class="st14" d="M323.8,222.2"/>
<path class="st14" d="M296.5,244.5"/>
<linearGradient id="SVGID_11_" gradientUnits="userSpaceOnUse" x1="339.7" y1="200.5228" x2="339.7" y2="200.5228" gradientTransform="matrix(1 0 0 1 0 0.6772)">
	<stop  offset="0.191" style="stop-color:#F27A46"/>
	<stop  offset="0.2407" style="stop-color:#F27841"/>
	<stop  offset="0.4733" style="stop-color:#F16F2F"/>
	<stop  offset="0.7195" style="stop-color:#F16A24"/>
	<stop  offset="1" style="stop-color:#F16821"/>
</linearGradient>
<linearGradient id="SVGID_12_" gradientUnits="userSpaceOnUse" x1="339.7" y1="200.5228" x2="339.7" y2="200.5228" gradientTransform="matrix(1 0 0 1 0 0.6772)">
	<stop  offset="0" style="stop-color:#ED7F4F"/>
	<stop  offset="1" style="stop-color:#000000"/>
</linearGradient>
<path class="st16" d="M339.7,201.2"/>
<g>
	<path class="st17" d="M297.7,174.2c7.6-0.5,15.2-0.2,22.8,0.5c7.6,0.7,15.1,2.1,22.5,4c3.7,1,7.3,2.1,10.9,3.5s7.1,2.9,10.5,4.6
		c3.4,1.8,6.7,3.8,9.8,6c3,2.3,6,4.8,8.5,7.5c-2.9-2.4-5.9-4.7-9.1-6.7s-6.5-3.8-9.9-5.4c-6.8-3.2-13.9-5.6-21.2-7.5
		c-3.6-1-7.3-1.8-11-2.5c-3.7-0.8-7.4-1.3-11.1-1.9C312.8,175.3,305.2,174.5,297.7,174.2z"/>
</g>
<g>
	<g>
		<path class="st0" d="M459.6,171.4c-3.8,5.5-8.1,10.6-12.8,15.3c-4.7,4.8-9.7,9.2-15,13.2s-11.1,7.5-17.1,10.5s-12.4,5-18.9,6.4
			c1.6-0.6,3.1-1.1,4.7-1.7c0.8-0.3,1.6-0.5,2.3-0.8l2.3-1l2.3-1c0.8-0.3,1.5-0.6,2.2-1l4.4-2.3c0.7-0.4,1.4-0.8,2.2-1.2l2.1-1.3
			l2.1-1.2c0.7-0.4,1.4-0.9,2.1-1.4c1.4-0.9,2.8-1.8,4.1-2.7l4-2.9c5.3-4,10.3-8.2,15.2-12.7c2.4-2.3,4.8-4.6,7.1-6.9
			C455.2,176.4,457.4,173.9,459.6,171.4z"/>
		<path class="st0" d="M459.6,171.4c-3.5,5.7-7.7,10.9-12.3,15.8c-4.6,4.9-9.5,9.5-14.8,13.6c-5.3,4.2-11.1,7.7-17.1,10.8
			c-6.1,3.1-12.6,5.2-19.2,6.6l-0.8-2.9l5.3-1.9c0.5-0.2,0.9-0.3,1.3-0.4c0.3-0.1,0.8-0.3,1.2-0.5l2.6-1.1l1.3-0.6
			c0.4-0.2,0.8-0.3,1.2-0.5l2.4-1.2c1.6-0.9,3.3-1.7,5-2.6l-0.1,0.1c2-1.3,4.2-2.4,6.1-3.6l3-1.9l1.5-1l1.5-1
			c3.9-2.6,7.6-5.6,11.3-8.5c1.8-1.5,3.7-3,5.4-4.5c1.8-1.5,3.5-3.2,5.3-4.7l2.6-2.4c0.9-0.8,1.7-1.7,2.6-2.6
			C456.4,174.6,458.1,173.1,459.6,171.4z M459.6,171.4c-1.7,1.8-3.2,3.8-4.7,5.5c-0.8,0.9-1.4,1.8-2.3,2.6l-2.5,2.6
			c-1.7,1.7-3.2,3.5-5,5.1c-1.7,1.6-3.5,3.3-5.3,4.8c-3.6,3.2-7.3,6.2-11.1,9c-1.9,1.5-3.9,2.7-5.9,4.1c-2,1.5-4.1,2.5-6,3.8
			l-0.1,0.1c-1.6,0.9-3.2,1.8-4.9,2.6l-1.2,0.7l-0.6,0.3c-0.2,0.1-0.5,0.2-0.7,0.4c-0.5,0.2-0.9,0.4-1.4,0.6l-1.2,0.5l-2.5,1.1
			c-0.4,0.2-0.8,0.4-1.4,0.6c-0.5,0.2-1,0.3-1.4,0.5l-5.2,1.9l-0.8-2.9c6.4-1.4,12.7-3.3,18.6-6.2s11.6-6.3,17-10.1
			c5.3-3.9,10.4-8.2,15.2-12.8C451.1,181.7,455.5,176.7,459.6,171.4z"/>
	</g>
</g>
<g>
	<g>
		<g>
			<defs>
				<path id="SVGID_13_" d="M471,242.5l3.9-11.3c0,0,3.3-17-1.3-32.3c0,0,0.1-4.4-2.5-8s-9.3-5.6-15.2,1.8l-28.7,16.1
					c0,0-50.5,13.5-48.5,1.9c1.9-11.6-0.7,5.6-0.7,5.6l8,8.4l17.7,9.4l10,2.2l18.2,4.9"/>
			</defs>
			<clipPath id="SVGID_14_">
				<use xlink:href="#SVGID_13_"  style="overflow:visible;"/>
			</clipPath>
		</g>
	</g>
</g>
<path class="st18" d="M424,296.3c0,0,3.2-0.2,9.5-4.5s14.6-11.3,14.6-11.3s5.8-5,5.5-6.8s-8.4-5.8-8.4-5.8l-30-10
	c0,0-44.1-29.9-39.4-40.6c4.7-10.7-0.9,2.5-0.9,2.5l-1.1,4.2l0.6,6.1l1.8,4.3l1.3,3.4l1.5,5.8l2,6.5l2.8,5.9l7.7,10l9,9.3"/>
<g>
	<g>
		<path class="st0" d="M446.4,264.9c-6.6-1.6-13.2-3.6-19.6-5.9c-6.5-2.3-12.8-4.9-19-7.9s-12.2-6.4-17.7-10.5
			c-2.7-2.1-5.4-4.4-7.6-7c-2.2-2.7-4.1-5.8-4.5-9.2c0.9,3.3,2.9,6.1,5.2,8.5c2.3,2.4,5,4.5,7.8,6.4c5.6,3.8,11.6,7,17.7,10
			s12.4,5.6,18.7,8.2C433.6,260.1,439.9,262.6,446.4,264.9z"/>
		<path class="st0" d="M446.4,264.9c-6.8-1.3-13.4-3.2-20-5.2c-6.6-2.1-13-4.6-19.3-7.6c-6.3-2.9-12.4-6.3-18-10.4
			c-2.8-2.1-5.5-4.4-7.8-7.2c-1.1-1.4-2.2-2.9-3.1-4.5s-1.5-3.5-1.8-5.4l2.9-0.6c0.8,3,2.6,5.6,4.9,7.9c2.2,2.3,4.9,4.4,7.6,6.3
			c5.5,3.8,11.4,7,17.4,10.1s12.2,5.8,18.4,8.5C433.9,259.7,440.1,262.3,446.4,264.9z M446.4,264.9c-6.5-1.9-12.9-4.3-19.2-6.7
			c-6.3-2.4-12.7-4.9-18.9-7.8c-6.2-2.9-12.2-6.1-18-9.8c-2.9-1.9-5.7-4-8.1-6.6c-2.4-2.5-4.7-5.6-5.7-9.2l2.9-0.6
			c0.3,3,2,5.9,4.1,8.4s4.7,4.7,7.3,6.8c5.3,4.1,11.3,7.5,17.3,10.6c6.1,3.1,12.3,5.8,18.7,8.3C433.3,260.8,439.8,263,446.4,264.9z"
			/>
	</g>
</g>
<radialGradient id="SVGID_15_" cx="367" cy="281.7228" r="0" gradientTransform="matrix(1 0 0 1 0 0.6772)" gradientUnits="userSpaceOnUse">
	<stop  offset="0.2739" style="stop-color:#469CF9"/>
	<stop  offset="0.2894" style="stop-color:#459BF9"/>
	<stop  offset="0.6923" style="stop-color:#358EFB"/>
	<stop  offset="1" style="stop-color:#2F89FC"/>
</radialGradient>
<path class="st19" d="M367,282.4"/>
<g>
	<g>
		<path class="st0" d="M302.3,238.5c4.9-5.1,10.3-9.7,16-13.9s11.7-8,18-11.3c3.2-1.6,6.4-3,9.8-4.2s6.8-2.2,10.3-2.8
			c7-1.3,14.5-0.9,21,1.9c-3.4-1-6.9-1.5-10.3-1.5c-3.5,0-6.9,0.4-10.3,1.2c-6.8,1.5-13.3,4.1-19.5,7.3c-6.2,3.1-12.2,6.8-18,10.7
			c-2.9,2-5.8,4-8.6,6.1C307.8,234,305.1,236.2,302.3,238.5z"/>
		<path class="st0" d="M302.3,238.5c5.1-4.8,10.9-8.8,16.4-13.1c5.7-4.1,11.6-7.9,17.9-11.2c6.2-3.4,12.8-6.1,19.8-7.7
			c3.5-0.9,7.1-1.3,10.7-1.3s7.3,0.5,10.8,1.5l-1,2.8c-6.2-2.7-13.3-3.1-20.1-1.9c-3.4,0.5-6.8,1.5-10.1,2.6c-3.3,1.1-6.5,2.5-9.7,4
			c-6.3,3.2-12.3,6.8-18.1,10.9C313,229.1,307.5,233.6,302.3,238.5z M302.3,238.5c4.7-5.4,10-10.1,15.6-14.5s11.6-8.3,17.9-11.8
			c3.2-1.7,6.5-3.2,9.9-4.4s6.9-2.3,10.5-2.9c7.2-1.3,14.9-1,21.8,1.9l-1,2.8c-3.2-1-6.6-1.5-9.9-1.5c-3.4,0-6.7,0.4-10.1,1.1
			c-6.7,1.4-13.1,4-19.3,7c-6.2,3-12.2,6.5-18.1,10.3l-8.7,5.8C307.9,234.3,305.1,236.4,302.3,238.5z"/>
	</g>
</g>
<linearGradient id="SVGID_16_" gradientUnits="userSpaceOnUse" x1="349.2" y1="124.4228" x2="349.2" y2="124.4228" gradientTransform="matrix(1 0 0 1 0 0.6772)">
	<stop  offset="0" style="stop-color:#469CF9"/>
	<stop  offset="0.2679" style="stop-color:#4299F9"/>
	<stop  offset="0.5119" style="stop-color:#3790FB"/>
	<stop  offset="0.6307" style="stop-color:#2F89FC"/>
	<stop  offset="0.8618" style="stop-color:#2F89FC"/>
	<stop  offset="0.8703" style="stop-color:#2F89FC"/>
	<stop  offset="1" style="stop-color:#2F89FC"/>
</linearGradient>
<path class="st20" d="M349.2,125.1"/>
<g>
	<path class="st21" d="M435.3,489.3c0.7-0.5,1.7,0.2,2.4,1c3.5,3.6,6.7,8,10.9,9.7c1.4,0.6,3.3,1.3,3.3,3c0,0.7-0.3,1.3-0.7,1.8
		c-0.5,0.8-1.1,1.5-1.7,2.2c-0.2,0.3-0.5,0.5-0.8,0.6c-0.5,0.1-1-0.1-1.5-0.4c-2.6-1.5-5.4-3-7.2-5.8c-1-1.6-1.7-3.4-2.9-4.9
		c-0.8-0.9-1.9-1.9-2.7-2.8C433.5,492.3,433.1,490.9,435.3,489.3z"/>
	<path class="st22" d="M433.7,491.8c0,0,7.5,6.4,8.3,8.2c0.9,1.8,8.1,6.3,8.1,6.3l-0.8,0.9c0,0-0.6,0.7-1.3,0.3
		c-0.7-0.4-5.6-2.8-7.3-5.4c-1.7-2.6-2.4-4.4-5.1-7.3C433,492,433.7,491.8,433.7,491.8z"/>
	<path class="st23" d="M440.4,531.2c-0.1-0.2-0.1-0.5-0.1-0.7c0.1-0.3,0.4-0.3,0.6-0.4c1.6-0.3,3.2-0.6,4.8-0.8c0.2,0,0.5-0.1,0.7,0
		c0.4,0.1,0.6,0.5,0.9,0.9c2.1,3.8,1.3,8.5,0.3,12.5c-1,3.7-2,7.3-3.2,10.9c-0.1,0.4-0.3,0.8-0.5,1.1c-1.2,1.3-3.8-1-3.9-2.8
		c-0.1-1.4,1.7-2.1,2.2-3.5C443.7,544.1,441.7,535.8,440.4,531.2z"/>
	<path class="st24" d="M476.7,515.8c0.5-3.7,0.9-7.8-0.7-11.3c2.6-0.3,5.3-0.3,7.9-0.2c0.3,0,0.6,0.1,0.9,0.3c0.3,0.2,0.5,0.6,0.6,1
		c1.2,3,1.2,6.4,0.9,9.5c-0.5,5.5-1.9,10.8-3.9,15.6c-0.6,1.3-1.4,2.8-2.7,2.8C470.8,533.8,476.1,520.5,476.7,515.8z"/>
	<path class="st25" d="M403.8,528.4c0.2-1,0.4-2.1,0.4-3.2c0.1-3.3-1.5-6.6-2.9-9.7c2.6,0,5.1-0.2,7.7-0.6c1.2,2.3,1.5,4.9,1.7,7.4
		c0.3,3.5,0.6,7,0.1,10.2c-0.7,4.2-2.6,7.8-4.9,10.9c-0.1,0.2-0.3,0.4-0.6,0.4c-0.3,0-0.5-0.2-0.7-0.4c-2.6-2.7-4.5-3.5-4-6.9
		C401.1,534.2,403.2,531.3,403.8,528.4z"/>
	<path class="st26" d="M433.8,579c2.4-2.6,3.1-6.7,4-10.5c0.1-0.6,0.3-1.2,0.7-1.5c0.3-0.3,0.8-0.3,1.2-0.3c1.4-0.1,2.8-0.1,4.2-0.2
		c0.4,0,0.8,0,1.2,0.2c0.4,0.2,0.7,0.6,0.9,1c1.1,2,1.3,4.5,0.9,6.6s-1.5,4-2.5,5.7c-2.1,3.3-4.5,6.3-7.1,9c-2,2-4.3,3.9-7.1,3.5
		c-1.5-0.2-2.9-1.1-4.3-1.9c-2.3-1.5-4.8-3.1-6.2-5.7C424.1,582.3,430.2,583.1,433.8,579z"/>
	<path class="st27" d="M428.9,588.7c1.9-0.2,3.5-1.3,5-2.3c1.1-0.7,2.2-1.4,3-2.5c1.4-1.7,2.2-4.2,4.1-5.2c-0.4,2.5-1.2,4.9-2.5,6.7
		c-1.6,2.1-3.9,3.4-6.1,4.6c-0.4,0.2-0.9,0.5-1.3,0.5s-0.8-0.1-1.2-0.2c-1.7-0.5-6.5-1.5-7.2-3.8c0.9,0.1,1.9,1.2,2.9,1.6
		C426.6,588.6,427.8,588.8,428.9,588.7z"/>
	<path class="st28" d="M478.8,569.3c0.6-2.4,0.7-5.1-0.2-7.6c-0.8-2.3-2.4-4.1-3.3-6.4c-0.6-1.6-0.8-3.2-1-4.9c0-0.2,0-0.4,0-0.6
		c0.1-0.2,0.3-0.3,0.5-0.3c1-0.1,2.1,0.7,3.1,1.1c2.6,1.1,5.2,0.1,7.6-0.8c0.5,1.4-0.4,2.6-0.9,3.8c-0.9,2.3-0.1,5.2,0.8,7.7
		s2,5.2,1.6,7.8c-0.4,2.3-1.8,3.9-3.1,5.6c-1.3,1.7-2.4,3.8-2,6.2c-0.1-0.4-5.2-2.1-5.7-4.4C475.7,574.6,478.2,571.3,478.8,569.3z"
		/>
	<path class="st29" d="M477.1,512.9c0,0-0.5,6.3,8.1,9.3c0,0-2.2,8.2-2.7,8.4c0,0-0.8,3.9-4.3,2.7c0,0-3.9-0.3-3.6-5.8
		c0,0,0.3-4.8,0.7-5.4L477.1,512.9z"/>
	<path class="st30" d="M445.9,534.7c-0.1-1.1-0.4-2.3-1-3.3c1.1,0.6,2.1,1.8,2.5,3.1s0.3,2.9-0.3,3.9c-0.3,0.6-0.7,1-1.2,1.4
		c-0.1,0.1-0.1-2.1-0.1-2.3C445.9,536.6,446,535.6,445.9,534.7z"/>
	<path class="st30" d="M441,551.8c0-0.1-0.1-0.1,0-0.2c0-0.1,0.1-0.1,0.1-0.1c0.5-0.2,1-0.3,1.4-0.8c0.3-0.4,0.4-0.9,0.8-1.2
		c0,0,0.1-0.1,0.2,0l0.1,0.1c0.3,0.5,0.4,1.1,0.2,1.7c-0.1,0.5-0.3,0.8-0.3,1.3s0.3,0.8-0.3,1C442.4,553.8,441.3,552.5,441,551.8z"
		/>
	<path class="st31" d="M407.4,534.7c0-0.2,0.1-0.3,0.2-0.4c0.1,0,0.2,0.1,0.3,0.2c0.6,1,0.4,2.2,0.1,3.2c-0.4,1.3-0.8,2.7-1.8,3.4
		c-0.4,0.3-1.4,0.7-1.6-0.2c-0.1-0.4,1-1.7,1.1-2C406.5,537.7,407,536.2,407.4,534.7z"/>
	<path class="st31" d="M407.4,517.3c0.2,0,0.4,0.1,0.6,0.2c0.1,0.1,0.2,0.3,0.3,0.5c0.2,0.6,0.4,1.1,0.6,1.7c-0.3,0.1-0.7,0-1-0.2
		c-0.9-0.5-2.7-1.2-2.9-2.4C405.7,517,406.6,517.2,407.4,517.3z"/>
	<path class="st32" d="M418.9,586.1c1.6,0.2,3.1,1.6,4.7,2.2c1.9,0.8,3.9,0.6,5.6,0c1.7-0.7,3.3-1.8,4.8-3s3-2.5,3.7-4.5
		c0.3,0.6,0.1,1.3-0.2,1.8c-2,3.4-4.7,6.2-7.8,8c-1.8,1-2.9,0.1-4.8-1C422.8,588.6,420.9,587.4,418.9,586.1z"/>
	<path class="st33" d="M477.6,556.3c-0.2-0.3-0.5-0.5-0.7-0.7c-0.6-0.7-0.6-1.8-0.7-2.7c0-0.1,0-0.3,0.1-0.4c0.1-0.1,0.2,0,0.3,0
		c0.6,0.2,1.2,0.5,1.9,0.7c-0.7,0.3-0.8,1.4-0.5,2.2s0.8,1.6,1.1,2.4c0.3,0.8,0.3,1.8-0.3,2.3C478.2,558.9,478.5,557.4,477.6,556.3z
		"/>
	<path class="st33" d="M481.6,556.7c0-0.7,0.3-1.4,0.5-2s0.5-1.2,0.7-1.8c0.1-0.3,0.3-0.6,0.5-0.5c0.3,0.1,0.4,0.4,0.3,0.7
		s-0.2,0.5-0.4,0.7c-0.6,0.7-0.8,1.8-0.7,2.9c0,1.1,0.3,2.1,0.6,3.1C482.1,559.5,481.6,557.7,481.6,556.7z"/>
	<path class="st33" d="M485.3,567.9c0.1-1.5-0.2-3.2-1.2-4.4c1.3,1,2.2,2.6,2.5,4.3c0.1,0.3,0.1,0.7,0.1,1c-0.1,0.9-1,4.9-2.2,3.9
		C483.8,572,485.2,568.9,485.3,567.9z"/>
</g>
<g>
	<path class="st34" d="M528.8,382c1.7-1.5,3.6-7.6,3.6-7.6l-22.6-12.8c0,0-4.2-0.6-8.1,3c0,0,16.5,18.7,22.7,18"/>
	<line class="st35" x1="395.1" y1="491.5" x2="378" y2="483.9"/>
	<path class="st36" d="M424.6,461.9l1.9,5.1l-9.1,35.3c0,0-16.4-4.5-24.3-1.6l-15.1-7.4l2.5-13.6l-6.4-18.1l39.8-12.5l3.1,1.7
		l-1.3-12.7c0,0,6.4-18,15.9-22c0,0,29.3-27,34.5-21.6c0,0,13.6-1.4,22.1,6.4l-2.2-5.8l2.3-20.7l0.5-4.6l12-4.5
		c0,0,13.6,0.4,20.7,13.1c1.1,2.1,2.1,3.9,2.9,5.5c4.1,8.3,3.9,11.1,2.9,13.1l3.5,9.9l-14.3,3.3c0,0-3.7-3.9-10.8-1.4l-7.2-5.1
		l-3.9,4.2l-1.9,0.8c0,0,3.9,18.1-1.1,26.1c0,0-23.8,26.3-50.9,30.3L424.6,461.9z"/>
	<path class="st37" d="M522.9,382.9c0,0,10.4-2.3,11.6,0c1.2,2.3,4.7,17.5-1.4,23.2l-3.8-0.1l-3-8.1"/>
	<path class="st38" d="M378.2,483l16.5,8.7c4.3-3.8,23.7-0.5,23.6,0.1"/>
	<path class="st39" d="M378.5,484l-1.6,8.7l15.1,7.4c0,0,6.6-3,24.3,1.6l1.8-4.1l0.6-5.1c0,0-21-3.9-23.2-0.1"/>
	<g>
		<polygon class="st40" points="378.8,478.5 372.5,460.7 384.9,456.8 		"/>
		<path class="st40" d="M378.9,479c-0.6-1.1-1.2-2.3-1.9-3.6c-0.7-1.3-1.5-2.8-2.3-4.3c-0.7-1.6-1.5-3.2-2.1-4.9
			c-0.5-1.7-0.9-3.5-0.5-5.4l0.1-0.5l0.2-0.1c2-1,4-1.7,6.1-2.3c2.1-0.6,4.2-1.2,6.3-1.6l0.8-0.2l-0.2,0.8c-1,3.7-2.1,7.4-3.2,11.1
			L378.9,479z M378.8,478l2.8-10.8c0.9-3.5,1.9-7.1,2.9-10.6l0.6,0.6c-2,0.9-4,1.6-6.1,2.3c-2.1,0.7-4.2,1.3-6.3,1.6l0.3-0.6
			c1.4,1.1,2.1,2.3,2.6,3.5c0.5,1.3,0.8,2.6,1.1,4l0.9,4.6C377.9,474.4,378.3,476.1,378.8,478z"/>
	</g>
	<line class="st41" x1="385.9" y1="456.5" x2="379.4" y2="480.1"/>
	<path class="st42" d="M394.6,460.5c0.5,0.4,1.1,0.7,1.7,0.8c0.3,0.1,0.7,0.1,1,0.1c0.4,0.1,0.7,0.2,1.1,0.3c1.6,0.4,3.3,0,4.5-1
		c-0.7-0.6-1.7-0.8-2.7-1.1c-1-0.3-2-0.7-3-1.1c-0.6-0.2-1.2-0.5-1.8-0.6c-0.5-0.1-0.9-0.1-1.4-0.2c-0.6-0.1-2.7-1.2-2.1,0.2
		C392.3,459.1,393.6,459.8,394.6,460.5z"/>
	<path class="st42" d="M398.4,457.6c-0.7-0.2-1.5-0.2-2.2-0.5c-0.3-0.2-0.7-0.4-1-0.5c-0.3,0-0.5,0-0.8-0.1s-0.5-0.3-0.4-0.6
		c0-0.2,0.2-0.3,0.3-0.3c0.3-0.1,0.7-0.1,1.1-0.2c0.8-0.1,1.5-0.5,2.2-0.9c0.7-0.3,1.5-0.6,2.3-0.3c0.6,0.2,1,0.7,1.4,1.1
		c0.7,0.8,1.3,1.7,1.5,2.7C403.1,460.1,399.1,457.8,398.4,457.6z"/>
	<path class="st43" d="M391,470.4c-0.3,0.2-0.5,0.4-0.8,0.7c-0.9,0.8-1.9,1.6-2.5,2.6c-0.3,0.6-0.5,1.2-0.6,1.8c0,0.3,0,0.7,0,1
		c0,0.5,0.1,1.1,0.4,1.5c0.1,0.2,0.3,0.3,0.5,0.3c0.3,0,0.5-0.4,0.6-0.8c0.2-0.8,0.4-1.5,0.7-2.2c0.3-0.7,0.8-1.3,1.3-2
		c0.5-0.6,0.9-1.2,1.4-1.8c0.2-0.3,0.5-0.6,0.6-1c0.1-0.3,0-1-0.4-1C391.8,469.5,391.2,470.2,391,470.4z"/>
	<path class="st42" d="M395.1,472.9c0.2-0.4-0.1-0.9-0.5-1.1s-0.9-0.2-1.3,0s-0.7,0.5-1,0.8c-1.2,1.3-1.9,3-2.6,4.6
		c-0.1,0.3-0.3,0.7-0.1,1c0.3,0.4,0.9,0.6,1.3,0.4l0.1-0.1c0,0,0.1-0.1,0.1-0.2c0.1-0.1,0.2-0.3,0.2-0.4c0.1-0.2,0.2-0.4,0.4-0.5"/>
	<path class="st43" d="M391.1,479c0.1-0.3,0.3-0.6,0.5-0.9c0.1-0.2,0.2-0.5,0.3-0.7c0.5-1.4,1.3-2.8,2.3-3.9
		c0.2-0.2,0.4-0.4,0.6-0.5c0.5-0.2,1.1,0,1.6,0.3c0.1,0.1,0.3,0.2,0.3,0.3c0,0.1,0,0.2,0,0.3c-0.2,0.5-0.8,0.7-1.3,1
		c-1.1,0.7-1.9,1.8-2.6,2.9c-0.2,0.3-0.4,0.7-0.6,1.1c-0.2,0.7-0.2,1.5-0.2,2.2c0,0.1-0.5-0.2-0.5-0.2c-0.2-0.1-0.3-0.3-0.3-0.5
		C391.1,480,391,479.4,391.1,479z"/>
	<path class="st43" d="M392.8,480.5c0.1-0.4,0.3-0.8,0.5-1.3c0.3-0.6,0.6-1.2,0.9-1.9c0.3-0.6,0.5-1.2,1-1.6
		c0.4-0.4,1.1-0.8,1.7-0.6c0.3,0.1,0.7,0.3,0.8,0.6c0.2,0.4,0,0.9-0.2,1.3c-0.4,0.9-0.7,1.8-0.9,2.7c-0.1,0.3-0.2,0.7-0.4,0.9
		c-0.2,0.2-0.5,0.3-0.8,0.4c-0.6,0.2-1.2,0.4-1.7,0.6C392.8,482.1,392.7,481,392.8,480.5z"/>
	<path class="st43" d="M399.4,482c-0.1-0.9,0-1.7,0.1-2.6c0.1-0.6,0.1-1.1,0.3-1.7c0.3-0.8,1-1.5,1.7-2c0.8-0.4,1.7-0.6,2.6-0.7
		c0.5,0,1.1,0,1.5,0.4c0.1,0.1,0.2,0.2,0.2,0.3c0,0.1,0,0.2-0.1,0.3c-0.4,1.1-1,2.1-1.7,3c-0.2,0.3-0.4,0.5-0.5,0.8s-0.2,0.7-0.2,1
		c-0.1,0.7-0.1,1.4-0.5,2c-0.2,0.4-0.6,0.7-0.9,1.1c-0.2,0.2-0.5,0.4-0.8,0.5C399.8,485,399.5,482.8,399.4,482z"/>
	<path class="st42" d="M404.1,480.7c0.3-1.1,0.7-2.3,1.3-3.3c0.2-0.4,0.5-0.8,0.9-0.9s0.9,0,1.2,0.3c0.3,0.3,0.5,0.7,0.6,1.1
		c0.3,1.1-0.1,2.2-0.7,3.1c-0.4,0.5-0.8,1-1.3,1.3c-0.4,0.3-1,0.9-1.5,0.9C403.4,483.3,403.9,481.3,404.1,480.7z"/>
	<g>
		<path class="st43" d="M408,479.7c0.9-0.4,1.6-1,2.1-1.7c0.6-0.7,1-1.5,1.4-2.3s0.8-1.7,1.1-2.6c0.3-0.9,0.6-1.8,1-2.7
			c0,1-0.1,2-0.3,2.9c-0.1,0.5-0.3,0.9-0.4,1.4c-0.2,0.5-0.4,0.9-0.6,1.4c-0.4,0.9-1,1.7-1.8,2.4C410,479.2,409,479.7,408,479.7z"/>
	</g>
	<g>
		<path class="st43" d="M398.4,463.9c1,1.2,2.2,2.1,3.5,3c1.2,0.9,2.6,1.6,4,2.1s2.9,0.8,4.4,0.8s3-0.2,4.5-0.6
			c-1.4,0.8-2.9,1.3-4.5,1.4s-3.2-0.1-4.7-0.7s-2.9-1.4-4.1-2.4C400.2,466.5,399.1,465.3,398.4,463.9z"/>
	</g>
	<g>
		<path class="st43" d="M411.8,450.4c0.2,0.1,0.3,0.3,0.3,0.5s0.1,0.4,0.1,0.6c0,0.4,0,0.6-0.1,1c0,0.3,0.1,0.7-0.2,0.9
			c-0.2,0.2-0.6,0.4-1.2,0.5l-0.2-0.1c-0.4-0.5-0.5-0.9-0.5-1.2c0-0.3,0.3-0.5,0.5-0.7s0.4-0.5,0.6-0.7s0.4-0.3,0.4-0.6L411.8,450.4
			z"/>
	</g>
	<path class="st43" d="M417,480.4c-1.2-2.2-1.3-5-0.1-7.1c0.1-0.1,0.2-0.3,0.3-0.3c0.1,0,0.3,0,0.4,0.1c1.2,0.7,2.4,1.8,2.8,3.1
		c0.1,0.4,0.2,0.8,0.2,1.3c0.1,1.1,0.2,2.1,0.3,3.2c0,0.4,0.1,0.9-0.1,1.3C419.9,483.6,417.5,481.3,417,480.4z"/>
	<path class="st43" d="M421.9,479.5c0.1-0.6,0-1.2-0.1-1.7c-0.2-1-0.4-1.9-0.6-2.8c-0.1-0.4-0.2-0.8,0-1.2c0.2-0.3,0.5-0.5,0.8-0.5
		s0.7,0,1,0.1c0.4,0.1,0.9,0.2,1.2,0.6c0.3,0.5,0.2,1.1,0.1,1.7c-0.4,1.3-0.7,2.7-1.2,4c-0.1,0.3-0.3,0.6-0.5,0.9
		c-0.2,0.2-0.6,0.4-0.9,0.3C421.7,480.4,421.9,480,421.9,479.5z"/>
	<g>
		<path class="st43" d="M413.2,454.4c1,0,2,0,3.1,0.1c0.5,0.1,1,0.1,1.6,0.3c0.5,0.1,1.2,0,1.7,0.3s0.7,0.9,1,1.5
			c0.3,0.5,0.6,0.9,0.8,1.4c0.5,1,0.7,2,0.8,3c-0.4-0.9-1-1.7-1.7-2.3c-0.4-0.3-0.7-0.6-1.2-0.7c-0.5-0.2-1-0.1-1.4-0.3
			c-0.4-0.2-0.5-0.8-0.9-1.1c-0.4-0.3-0.7-0.6-1.2-0.8C415.1,455.1,414.2,454.7,413.2,454.4z"/>
	</g>
	<path class="st43" d="M426.3,466.8c-0.7-0.6-1.4-1.1-2.3-1.5c-0.8-0.4-1.7-0.6-2.6-0.5c-0.1,0-0.3,0-0.4,0.1
		c-0.2,0.2-0.3,0.5-0.2,0.8c0.1,0.3,0.3,0.5,0.5,0.7c1.1,1.2,2.6,2,4.2,2.2c0.2,0,0.5,0,0.6-0.2c0.1-0.1,0.1-0.3,0.2-0.4
		c0-0.1,0.1-0.2,0.2-0.3C426.5,467.5,426.5,467,426.3,466.8z"/>
	<path class="st43" d="M422.8,463.7c-0.6-0.2-1.3-0.7-1.5-1.3c0-0.1-0.1-0.2,0-0.3c0-0.1,0.1-0.1,0.1-0.2c0.2-0.2,0.4-0.4,0.7-0.5
		c0.4-0.1,0.9,0,1.3,0.1c0.3,0.1,0.6,0.2,0.8,0.3c0.3,0.3,0.4,0.7,0.5,1.1c0.1,0.3,0.2,0.7,0.2,1.1c0,0.3,0,0.3-0.3,0.2
		C424,464.1,423.4,464,422.8,463.7z"/>
	<g>
		<path class="st43" d="M420.1,451.5c0.1-0.8,0.2-1.5,0.2-2.3c0-0.7-0.1-1.4-0.5-1.6c-0.6-0.3-1.3-0.5-2-1c-0.4-0.2-0.7-0.6-0.8-1.1
			c-0.1-0.4,0-0.9,0.1-1.2c0.1,0.4,0.1,0.8,0.3,1c0.2,0.3,0.4,0.4,0.7,0.6c0.6,0.2,1.4,0.4,2.2,0.8c0.2,0.1,0.5,0.3,0.6,0.5
			c0.1,0.1,0.1,0.2,0.2,0.3c0.1,0.1,0.1,0.2,0.1,0.3c0.1,0.5,0.1,0.9,0,1.3C420.9,450.1,420.6,450.9,420.1,451.5z"/>
	</g>
	<g>
		<path class="st43" d="M420.7,451.6c0.1-1,0.3-1.8,0.5-2.6c0.3-0.8,0.6-1.6,0.9-2.3c0.1-0.2,0.1-0.4,0.2-0.5c0-0.1,0.1-0.3,0.2-0.5
			c0.1-0.4,0.3-0.8,0.4-1.2c0.3-0.8,0.7-1.6,1.3-2.4c0.2,0.9,0.3,1.8,0.3,2.7c0,0.4,0,0.9-0.1,1.3c0,0.2,0,0.4-0.1,0.7
			c-0.1,0.3-0.2,0.5-0.2,0.7c-0.4,0.9-0.8,1.6-1.3,2.3C422.1,450.4,421.5,451,420.7,451.6z"/>
	</g>
	<g>
		<path class="st43" d="M421.5,451.5c0.5-1.1,1.5-1.8,2.7-2.1c0.6-0.1,1.2,0,1.7,0.1c0.6,0.1,1.1,0.2,1.7,0.3
			c0.3,0.1,0.5,0.2,0.8,0.3c0.3,0.1,0.5,0.3,0.7,0.4c0.5,0.3,0.9,0.6,1.3,0.9c0.2,0.2,0.4,0.3,0.6,0.4s0.4,0.3,0.5,0.3
			c0,0,0,0.1,0,0c0,0,0.1-0.1,0.1-0.3c0-0.2,0-0.5,0-0.8h0.1c0.2,0.2,0.3,0.5,0.4,0.8c0,0.2,0.1,0.3,0,0.5c0,0.1-0.1,0.3-0.2,0.3
			c-0.1,0.1-0.3,0.2-0.4,0.2c-0.5,0.1-0.7-0.1-1-0.2s-0.5-0.3-0.8-0.4c-0.5-0.3-0.9-0.7-1.3-1.1l-0.6-0.5c-0.2-0.1-0.4-0.3-0.6-0.5
			c-0.2-0.1-0.5-0.3-0.7-0.4c-0.3-0.1-0.5-0.2-0.8-0.1c-0.5,0-1,0.2-1.5,0.4C423.5,450.5,422.6,451,421.5,451.5L421.5,451.5z"/>
	</g>
	<g>
		<path class="st43" d="M424.2,455.7c0.2-0.3,0.3-0.5,0.4-0.7s0.1-0.4,0.1-0.6c0-0.4,0-0.9,0-1.6c0.3,0.1,0.6,0.4,0.7,0.7
			c0.2,0.3,0.3,0.6,0.3,1s-0.2,0.8-0.5,1C424.9,455.7,424.5,455.8,424.2,455.7z"/>
	</g>
	<g>
		<path class="st42" d="M425.7,455.4c1,0,1.9,0.3,2.7,0.7c0.8,0.4,1.6,0.9,2.3,1.6c-1,0-1.9-0.3-2.7-0.7
			C427.2,456.6,426.4,456.2,425.7,455.4z"/>
	</g>
	<g>
		<path class="st43" d="M525.3,397.1c-1.1-1.1-1.9-2.3-2.6-3.5c-0.7-1.2-1.4-2.4-2-3.7c-0.6-1.2-1.1-2.5-1.6-3.8l-0.7-1.9
			c-0.1-0.3-0.2-0.6-0.4-0.9c-0.1-0.1-0.2-0.3-0.3-0.4s-0.2-0.2-0.4-0.2c0.1-0.1,0.4-0.2,0.6-0.2c0.2,0,0.4,0.1,0.6,0.2
			c0.4,0.2,0.7,0.4,1,0.6c0.6,0.5,1.1,1,1.6,1.6c0.9,1.2,1.6,2.4,2.2,3.7c0.6,1.3,1.1,2.6,1.4,4
			C525.1,394.1,525.4,395.5,525.3,397.1z"/>
	</g>
	<path class="st39" d="M488.4,374l0.4-3.8l0.7-0.5l11.8-4.2c0,0,11.3,2,13.1,4.9l8,9.6c0,0,7.4,14,5.4,15.9v2.3l3,8.6l-2.7,0.9
		l-2.2,0.5c0,0-5.1-8-2.9-8.9l4.7-1.5l-8.7-16.9c0,0-12.5-13.1-16.1-12C499.2,370,488.4,374,488.4,374z"/>
	<path class="st44" d="M502.2,372.5c-0.3,0-0.5,0-0.8,0.1s-0.5,0.3-0.7,0.4c-1.5,1.2-3.1,2.4-4.6,3.6c-0.4,0.3-0.8,0.7-1.1,1.1
		c-0.8,1.1-0.8,2.8-0.1,4c0.1,0.2,0.3,0.5,0.3,0.7s-0.1,0.4-0.2,0.6c-0.3,0.5-0.5,1-0.8,1.4c-0.1,0.1-0.1,0.2-0.2,0.3
		c-0.1,0.1-0.2,0.1-0.3,0.1c-0.7,0.1-1.4,0.1-1.9-0.3c-0.6-0.5-0.6-1.4-0.6-2.2c0-0.9,0.1-1.7,0.1-2.6c0-0.5,0.1-0.9,0.3-1.3
		c0.2-0.2,0.5-0.4,0.7-0.7c0.2-0.3,0.3-0.7,0.5-1c0.3-0.4,0.9-0.6,1.2-1c0.2-0.2,0.3-0.4,0.4-0.7c0.3-0.8,0.3-1.6-0.1-2.4
		c2.3-1.1,4.9-1.3,7.3-2.1c0.6-0.2,1.3-0.5,2-0.5c0.4,0,0.9,0,1.3,0.2c0.6,0.3,0.4,0.5,0,0.9C504.3,371.8,503.3,372.4,502.2,372.5z"
		/>
	<path class="st43" d="M488.8,388.4c0.2-0.7,0.5-1.3,0.7-2c0.7,0.5,1.7,0.4,2.2-0.2c-0.1-0.3-0.4-0.5-0.7-0.7
		c-0.4-0.3-0.8-0.8-1.2-1.2c-0.4-0.4-1-0.7-1.5-0.6s-0.8,0.6-0.9,1c-0.1,0.5-0.1,0.9-0.2,1.4c-0.1,1.9-0.6,3.8-1,5.7
		c-0.1,0.6-0.4,1.9,0,2.5c0.5,0.7,1-0.8,1.2-1.2C488,391.5,488.2,389.9,488.8,388.4z"/>
	<path class="st42" d="M497.3,384.3c0.1-0.7,0.3-1.4,0.4-2.2c0.1-0.6,0.3-1.2,0.6-1.8c0.4-0.7,1.2-1.3,2-1.5s1.7,0,2.4,0.5
		c0.1,0.1,0.3,0.2,0.3,0.4c0,0.1,0,0.2-0.1,0.3c-0.4,0.8-1,1.5-1.5,2.3c-0.5,1-0.8,2.1-1.5,2.9c-0.5,0.5-1.5,1.1-2.2,0.9
		C497,386,497.2,384.9,497.3,384.3z"/>
	<path class="st43" d="M499.8,387.2c0.9-1.1,1.9-2.3,2.3-3.7c0.1-0.4,0.2-0.8,0.4-1.2c0.2-0.4,0.6-0.7,1-0.7c0.6,0,1,0.7,1.3,1.3
		c0.2,0.4,0.4,0.9,0.4,1.3c0,0.3-0.2,0.7-0.3,1c-0.3,0.6-0.7,1.2-1.2,1.7c-0.3,0.3-0.7,0.5-1,0.7c-0.6,0.4-1.3,0.8-2.1,1
		c-0.7,0.2-1.6,0-2.1-0.6C499.1,387.8,499.4,387.7,499.8,387.2z"/>
	<path class="st43" d="M508.3,384.2c0-0.3,0.1-0.7,0.4-0.9c0.1-0.1,0.3-0.2,0.5-0.3c0.2-0.2,0.2-0.4,0.3-0.6
		c0.2-0.4,0.7-0.7,1.1-0.9c0.3-0.1,0.7-0.3,1-0.3s0.7,0.1,1,0.4c0,0.1,0.1,0.1,0.1,0.2c0,0.2-0.1,0.3-0.2,0.4
		c-1.5,1.4-2.1,3.5-2.8,5.5c-0.4,1.1-1.2,0.6-1.2-0.3C508.4,386.3,508.2,385.3,508.3,384.2z"/>
	<path class="st43" d="M511.3,387.6c0.1-0.4,0.1-0.8,0.2-1.2c0.1-1.5,0.7-2.9,1.3-4.2c0.1-0.1,0.1-0.3,0.2-0.4
		c0.3-0.3,0.8,0,1.1,0.4c0.5,0.5,0.9,1.1,1.1,1.8c0.1,0.2,0.2,0.4,0.2,0.6c0,0.3-0.1,0.6-0.2,0.8c-0.2,0.5-0.4,1.1-0.6,1.6
		c-0.3,0.5-0.7,1-1.2,1.2c-0.3,0.1-0.6,0.1-0.9,0.2C511.5,388.6,510.9,388.8,511.3,387.6z"/>
	<g>
		<path class="st43" d="M515.2,390.4c0.5,0.4,1,0.8,1.3,1.4c0.2,0.3,0.3,0.6,0.3,1s-0.2,0.8-0.5,1.2c-0.4,0.3-0.6,0.4-0.6,0.5
			c-0.1,0.1-0.1,0.2,0,0.4c0.2,0.4,0.6,0.9,1,1.4c-0.6-0.2-1.2-0.4-1.6-1c-0.2-0.3-0.4-0.8-0.1-1.3c0.1-0.2,0.3-0.4,0.5-0.5
			s0.2-0.2,0.3-0.2c0.2-0.2,0.3-0.6,0.2-1.2C515.6,391.6,515.4,391,515.2,390.4z"/>
	</g>
	<path class="st43" d="M512.4,404.5c0.2-0.6,0.5-1.2,0.9-1.7c0.4-0.4,0.9-0.8,1.4-1s1-0.4,1.5-0.5c0.5,0,1.1,0.1,1.5,0.5
		c0.7,0.6,0.6,1.8,0,2.4c-0.4,0.4-1,0.5-1.5,0.7c-0.6,0.3-1.1,0.8-1.7,1.3c-0.6,0.5-1.4,0.9-2.2,1.1
		C512.1,406.2,511.9,405.5,512.4,404.5z"/>
	<path class="st43" d="M515,406.4c0.4-0.3,0.9-0.5,1.4-0.7c1-0.5,1.7-1.6,2.3-2.5c0.2-0.3,0.4-0.6,0.7-0.8c0.3-0.2,0.7-0.2,1,0.1
		c0.3,0.4,0,1,0,1.5c0,0.4,0.1,0.9,0,1.3c-0.1,0.6-0.7,1-1.2,1.3c-0.4,0.3-0.9,0.6-1.3,0.9c-0.2,0.2-0.5,0.3-0.8,0.4
		c-0.3,0-0.6-0.1-0.9,0c-0.3,0-0.5,0.2-0.8,0.2C514.2,408.6,514.4,407,515,406.4z"/>
	<g>
		<path class="st43" d="M505.6,407.6c-0.8-1.1-1.3-2.4-1.6-3.8c-0.3-1.4,0-2.8,0.5-4.1c0.1-0.3,0.2-0.6,0.4-0.9
			c0.1-0.3,0.3-0.6,0.5-0.9c0.4-0.6,0.7-1.1,1.1-1.7c0.3-0.6,0.7-1.1,0.9-1.7c0.1-0.3,0.2-0.6,0.3-0.9c0-0.1,0-0.3,0.1-0.4
			c0-0.1,0-0.3,0-0.2l0.3,0.2c-0.8-0.4-1.6-0.7-2.4-0.9c-0.4-0.1-0.8-0.2-1.2-0.2c-0.4,0-0.8,0-1.1,0.4h-0.1
			c0.1-0.5,0.7-0.8,1.1-0.9c0.5-0.1,1-0.1,1.4,0c0.9,0.1,1.8,0.4,2.7,0.7l0.2,0.1l0.1,0.2c0.1,0.4,0.1,0.5,0.1,0.7s0,0.4-0.1,0.6
			c-0.1,0.4-0.2,0.7-0.4,1c-0.3,0.6-0.7,1.2-1.1,1.7s-1,1-1.4,1.5c-0.2,0.2-0.4,0.5-0.6,0.8c-0.1,0.1-0.2,0.3-0.2,0.4l-0.1,0.5
			c-0.3,1.3,0,2.6,0.1,3.8C505.1,405,505.4,406.2,505.6,407.6L505.6,407.6z"/>
	</g>
	<g>
		<path class="st43" d="M488.8,400.6c-0.4-0.5-0.4-1.1-0.4-1.6c0-0.6,0.2-1.1,0.4-1.6c0.5-1.1,1.6-1.7,2.6-2c0.5-0.2,1-0.3,1.5-0.5
			s1-0.4,1.4-0.7c0.9-0.4,1.9-0.9,2.7-1.3l0.2-0.1h0.2c0.8,0,1.6,0.1,2.4,0.2c0.4,0,0.8,0.1,1.2,0.2c0.4,0,0.8,0.1,1.2,0.2v0.1
			c-0.4,0.2-0.8,0.2-1.2,0.3c-0.4,0.1-0.8,0.1-1.2,0.1c-0.8,0.1-1.6,0.1-2.4,0l0.3-0.1c-0.5,0.3-1,0.5-1.5,0.7s-1,0.3-1.5,0.5
			c-1,0.2-2.1,0.3-3,0.8s-1.5,1.3-1.9,2.1C489.2,398.6,488.8,399.6,488.8,400.6L488.8,400.6z"/>
	</g>
	<path class="st45" d="M443.2,451.8c0,0-7.3-2.6-6.9-13.3c0,0,2.7-18.4,21.5-26.3l7.7-3.3c0,0,11-2.9,16.5,3.2
		c0,0-8.1,17.5-21.6,22.1C460.5,434.2,457,432.1,443.2,451.8z"/>
	<g>
		<path class="st43" d="M496.5,402.9c0.9-0.3,1.8-0.7,2.5-1.3c0.3-0.3,0.6-0.6,0.8-1c0.2-0.3,0.4-0.8,0.6-1.3
			c0.8-1.8,1.5-3.6,2.5-5.3c-0.1,1-0.3,1.9-0.6,2.9c-0.3,0.9-0.6,1.9-1,2.8c-0.2,0.5-0.4,0.9-0.7,1.4c-0.3,0.5-0.7,0.8-1.2,1.1
			C498.6,402.7,497.5,402.9,496.5,402.9z"/>
	</g>
	<g>
		<path d="M495.1,402.2c-0.3-0.2-0.6-0.6-0.6-1c-0.1-0.4,0-0.8,0.1-1.2c0.3-0.7,0.9-1.3,1.7-1.5c-0.2,0.8-0.6,1.3-0.8,1.9
			C495.2,400.9,495.1,401.3,495.1,402.2z"/>
	</g>
	<g>
		<path class="st43" d="M490.6,406.6c0.2,0.2,0.4,0.2,0.7,0.4c0.3,0.1,0.5,0.2,0.7,0.4c0.2,0.1,0.4,0.3,0.7,0.3
			c0.1,0,0.2-0.1,0.3-0.2c0.1-0.1,0.1-0.2,0.2-0.4c0.2-0.6,0.5-1.1,0.7-1.6c0.2-0.4,0.5-1.2,1.2-1.4l0.1,0.1
			c-0.1,0.6-0.1,1.1-0.3,1.8c-0.3,0.6-0.7,1.1-1.3,1.5c-0.1,0.1-0.3,0.2-0.4,0.3c-0.1,0.1-0.3,0.2-0.4,0.3c-0.3,0.1-0.7,0.2-1.1,0.2
			c-0.4-0.1-0.7-0.3-0.9-0.5c-0.1-0.1-0.2-0.2-0.3-0.4C490.5,407,490.4,406.7,490.6,406.6L490.6,406.6z"/>
	</g>
	<g>
		<path d="M486,401.6c-0.7-0.4-1.5-0.8-2.2-1s-1.4-0.2-2,0.1c-0.5,0.3-1,0.8-1.4,1.3l-0.5,1c-0.1,0.4-0.3,0.7-0.4,1l-0.2,0.4
			l-0.3,0.2c-0.3,0.1-0.6,0.3-0.8,0.5c-0.1,0.1-0.3,0.2-0.3,0.3c-0.1,0.1-0.2,0.2-0.1,0.1c0,0,0.1-0.3,0-0.5
			c-0.1-0.1-0.1-0.2-0.2-0.3l-0.1-0.1c0,0,0.1,0,0.2,0.1c0.3,0.1,0.6,0.1,0.9,0.1h0.2l0.1,0.1c1,0.5,2,1,3,1.6s1.9,1.2,2.8,1.9
			c-1.1-0.2-2.2-0.5-3.3-0.8c-1.1-0.3-2.1-0.7-3.2-1.1l0.4,0.1c-0.4,0-0.8,0-1.3,0c-0.2,0-0.5,0-0.8-0.2c-0.1,0-0.2-0.1-0.3-0.2
			c-0.1-0.1-0.2-0.3-0.3-0.5c-0.2-0.4,0-0.9,0.1-1c0.2-0.4,0.4-0.6,0.6-0.7c0.2-0.2,0.4-0.3,0.5-0.4c0.3-0.2,0.7-0.4,1.1-0.6
			l-0.5,0.5c0.2-0.4,0.4-0.8,0.5-1.2c0.2-0.4,0.5-0.8,0.7-1.2c0.6-0.7,1.4-1.4,2.4-1.7c1-0.3,2,0,2.8,0.5
			C485,400.3,485.6,400.9,486,401.6z"/>
	</g>
	<path class="st32" d="M452.7,452.1c-0.1-0.1-0.2-0.1-0.3-0.3c0-0.1,0-0.2,0-0.3c0.1-0.6,0.7-0.9,1.3-0.9c0.6,0,1.1,0.3,1.6,0.6
		c0.1,0.1,0.3,0.2,0.4,0.3c0.2,0.3,0.3,0.7,0.3,1.1s-0.2,0.7-0.4,1C454.5,453.4,453.6,452.7,452.7,452.1z"/>
	<path class="st45" d="M445.4,454.3c0,0,7-19.5,25.1-22.2c0.1,0,0.2-0.1,0.4-0.1c0,0,12-10.6,12.5-17.1l1.5-1.5
		c0,0,7.8,7.7-3.9,24.9c0,0-7.8,12.7-24.5,21.6c0,0-8.9,0.7-10.8-5.2"/>
	<path class="st46" d="M455.7,431.7c0.1,0.5,0,1-0.1,1.5c-0.1,0.6-0.3,1.1-0.4,1.7c-0.3,1.1-0.7,2.1-1.3,3.1c-0.3,0.6-0.9,1.2-1.5,1
		c-0.7-0.2-1.1-1.2-1.7-0.9c-0.3,0.1-0.4,0.5-0.4,0.8c-0.5,2.1-1.4,4-2.7,5.7c-0.3,0.3-0.6,0.7-1,0.9c-0.4,0.2-0.9,0.2-1.3,0.1
		c-1-0.1-2-0.4-2.9-0.9c-1.1-0.7-1.8-1.8-2.5-2.9c-0.5-0.8-1.1-1.7-1.3-2.6c-0.1-0.6,0-1.2,0-1.8c0.2-1.8,0.3-3.6,0.9-5.3
		c0.5-1.7,1.4-3.4,2.8-4.5c0.4-0.3,0.9-0.7,1.4-0.8c1.5-0.4,3,0.7,3.8,2c0.5,0.7,0.9,1.5,0.9,2.4c0.1,1.7-0.8,3.2-1.7,4.6
		c-0.3,0.5-0.7,1.1-1.3,1.2c-0.6,0.1-1.2-0.3-1.7-0.7c-0.6-0.4-1.1-0.9-1.4-1.5c-0.4-1,0.2-2.2,0.8-3.1c0.2-0.3,0.7-0.8,1.1-0.6
		c0.5,0.3-0.1,1.2-0.3,1.6c-0.2,0.7,0,1.5,0.6,1.9c0.2,0.1,0.4,0.2,0.6,0.2s0.3-0.2,0.4-0.3c0.7-0.9,1.4-2,1-3.1
		c-0.3-1-1.4-1.6-2.4-1.5s-1.9,0.9-2.3,1.8c-0.2,0.5-0.3,1-0.4,1.6s-0.2,1.2-0.3,1.7c-0.1,0.4-0.1,0.7-0.1,1.1
		c0,0.7,0.2,1.5,0.4,2.2c0.3,1.1,0.7,2.3,1.7,3c0.8,0.5,1.9,0.6,2.8,0.3c0.9-0.3,1.7-1,2.2-1.8c0.7-0.9,1.1-2,1-3.2
		c-0.1-1.1-0.6-2.1-0.6-3.1c0-1.1,0.3-2.1,0.8-3c0.3-0.7,0.8-1.5,1.4-1.9c0.9-0.5,2.1-0.4,2.9,0.2s1.4,1.6,1.6,2.6L455.7,431.7z
		 M452.5,435.5c0.2,0.3,0.4,0.8,0.9,0.4c0.1-0.1,0.2-0.3,0.3-0.5c0.2-0.6,0.5-1.1,0.6-1.7c0.1-0.5,0-1,0-1.5
		c-0.1-0.6-0.1-1.2-0.5-1.7c-0.1-0.2-0.3-0.4-0.5-0.6c-0.1-0.1-0.1-0.1-0.2-0.1s-0.1,0-0.2,0.1c-0.4,0.2-0.7,0.6-0.8,1.1
		c-0.1,0.4-0.1,0.9-0.1,1.4c0,0.6,0,1.3,0.2,1.9C452,434.7,452.2,435.1,452.5,435.5z M473.6,418.4c-0.1,0.3-0.1,0.6-0.5,0.6
		c-0.3,0-0.5-0.4-0.5-0.6c0-0.4,0.2-0.7,0.3-1.1c0.9-1.5,1.7-3.1,2.1-4.8c0.1-0.5,0.2-1,0.1-1.4s-0.4-0.9-0.8-1.1
		c-0.7-0.3-1.5,0.1-2.2,0.6c-0.6,0.4-1.3,0.8-1.7,1.4c-0.7,1-0.7,2.4-0.7,3.7c0,1.1,0,2.1,0.1,3.2c0,1,0.1,2.2,1,2.7
		c0.4,0.2,0.9,0.3,1.3,0.4c0.3,0.1,0.5,0.2,0.8,0.1c0.2,0,0.4-0.1,0.6-0.2c1.4-0.7,2.4-1.9,3.4-3.1c0.2-0.2,0.4-0.5,0.4-0.9
		c0-0.3-0.2-0.6-0.4-0.8c-0.5-0.5-1-0.8-1.7-1c-0.1,0-0.2-0.1-0.4,0c-0.1,0-0.2,0.1-0.2,0.2C474.1,417,473.8,417.7,473.6,418.4z
		 M459.4,436.6C459.3,436.6,459.3,436.6,459.4,436.6c-0.7,0.8-1,1.4-0.4,2.3c0.3,0.4,0.9,0.3,1.3,0.2c0.2-0.1,0.4-0.2,0.6-0.3
		c2-1.4,3-3.7,3.8-6c0.2-0.5,0.4-1,0.4-1.6c0.1-1.1-0.5-2.2-0.7-3.4c-0.2-0.9-0.2-1.8-0.4-2.7c-0.2-0.6-0.5-1.1-0.6-1.7
		s-0.1-1.3,0.4-1.7c0.2-0.2,0.5-0.3,0.7-0.5s0.4-0.5,0.2-0.8c-0.1-0.2-0.3-0.3-0.5-0.4c-0.7-0.5-0.9-1.5-0.8-2.4s0.7-1.6,1.1-2.4
		c0.3-0.5,0.5-1.2,0.3-1.7c-0.3-0.6-1-0.8-1.7-0.6c-0.6,0.2-1.1,0.7-1.5,1.2c-1.1,1.3-1.8,2.9-2.2,4.5c-0.1,0.6-0.3,1.2-0.2,1.8
		c0,0.7,0.2,1.4,0.4,2.1c0.6,2.4,1.3,4.7,1.9,7.1c0.4,1.3,0.5,2.4,0,3.7C460.9,434.5,460.6,435.9,459.4,436.6z M454.1,439.6
		c-0.8,0.5-1.8,0.5-2.8,0.6c0.7,0.7,1.5,1.3,2.4,1.7c0.4,0.2,0.9,0.3,1.3,0.2c0.2-0.1,0.4-0.2,0.6-0.3c2-1.4,3-3.7,3.8-6
		c0.2-0.5,0.4-1,0.4-1.6c0.1-1.1-0.5-2.2-0.7-3.4c-0.2-0.9-0.2-1.8-0.4-2.7c-0.2-0.6-0.5-1.1-0.6-1.7s-0.1-1.3,0.4-1.7
		c0.2-0.2,0.5-0.3,0.7-0.5s0.4-0.5,0.2-0.8c-0.1-0.2-0.3-0.3-0.5-0.4c-0.7-0.5-0.9-1.5-0.8-2.4s0.7-1.6,1.1-2.4
		c0.3-0.5,0.5-1.2,0.3-1.7c-0.3-0.6-1-0.8-1.7-0.6c-0.6,0.2-1.1,0.7-1.5,1.2c-1.1,1.3-1.8,2.9-2.2,4.5c-0.1,0.6-0.3,1.2-0.2,1.8
		c0,0.7,0.2,1.4,0.4,2.1c0.6,2.4,1.3,4.7,1.9,7.1c0.4,1.3,0.5,2.4,0,3.7C455.7,437.5,455.3,438.9,454.1,439.6z M468,422.3
		c-0.1,0.3-0.1,0.6-0.5,0.6c-0.3,0-0.5-0.4-0.5-0.6c0-0.4,0.2-0.7,0.3-1.1c0.9-1.5,1.7-3.1,2.1-4.8c0.1-0.5,0.2-1,0.1-1.4
		c-0.1-0.5-0.4-0.9-0.8-1.1c-0.7-0.3-1.5,0.1-2.2,0.6c-0.6,0.4-1.3,0.8-1.7,1.4c-0.7,1-0.7,2.4-0.7,3.7c0,1.1,0,2.1,0.1,3.2
		c0,1,0.1,2.2,1,2.7c0.4,0.2,0.9,0.3,1.3,0.4c0.3,0.1,0.5,0.2,0.8,0.1c0.2,0,0.4-0.1,0.6-0.2c1.4-0.7,2.4-1.9,3.4-3.1
		c0.2-0.2,0.4-0.5,0.4-0.9c0-0.3-0.2-0.6-0.4-0.8c-0.5-0.5-1-0.8-1.7-1c-0.1,0-0.2-0.1-0.4,0c-0.1,0-0.2,0.1-0.2,0.2
		C468.5,420.8,468.2,421.5,468,422.3z"/>
	<g>
		<path class="st47" d="M450.6,453.2c-0.1-0.1-0.2-0.2-0.3-0.3c-0.1-0.1-0.1-0.2-0.1-0.3c0-1.4,0.6-2.8,1.6-3.7
			c0.4-0.3,0.8-0.6,1.3-0.7c0.6-0.1,1.3,0,2,0.2c1.1,0.3,2.2,0.8,2.7,1.8c0.6,1.2,0,2.6-0.5,3.8c-0.3,0.7-0.6,1.3-0.9,2
			c0,0.1-0.1,0.2-0.2,0.2s-0.1,0-0.2-0.1C454.2,455.2,452.3,454.4,450.6,453.2z M463.1,448.1c0.1-0.4-0.4-0.9-0.9-0.8
			c-0.6,0.2-0.7,1.1-1.3,1.3c-0.3,0.1-0.7,0-0.9-0.3c-0.2-0.3-0.2-0.7,0-1c0.2-0.4,0.6-0.6,0.8-1s0.1-1-0.3-1c-0.1,0-0.3,0-0.4,0.1
			c-0.4,0.2-0.7,0.5-1,0.8c-0.2,0.3-0.4,0.7-0.8,0.8s-0.9-0.2-0.7-0.5c0.8-0.5,1.5-1.1,2-1.9c-0.4-0.3-0.5-0.8-0.9-1.1
			c-0.4-0.2-0.9,0-1.3,0.2c-1,0.6-1.7,1.4-2.4,2.3c-0.2,0.2-0.4,0.5-0.3,0.8c0.1,0.2,0.3,0.4,0.5,0.5c1,0.6,2,1.3,2.9,1.9
			c0.4,0.3,0.8,0.5,1.3,0.8c0.4,0.3,0.9,0.6,1.4,0.5s0.8-0.5,1.1-0.9C462.2,449.4,463,448.6,463.1,448.1z M464.9,446.2
			c0.9-0.9,1.7-1.8,2.6-2.7c-0.5-0.3-1-0.5-1.4-0.8c-0.3,0.3-0.7,0.7-1,1c-0.1,0.1-0.2,0.2-0.4,0.3c-0.2,0.1-0.5-0.1-0.7-0.2
			c-0.9-0.6-1.8-1.2-2.7-1.7c-0.3-0.2-0.7-0.4-1.1-0.4c-0.6,0-0.9,0.4-0.6,0.8c0.4,0.5,1.3,0.8,1.9,1.1
			C462.7,444.3,463.9,445.2,464.9,446.2z M467.3,442.2c0.3,0.2,0.6,0.4,0.9,0.6c0.5,0.2,0.4,0.2,0.7-0.2c0.4-0.5,0.7-0.9,1.3-1.2
			c0.1,0,0.1-0.1,0.2-0.1c0-0.1-0.1-0.2-0.1-0.3c-1.5-1.3-3.1-2.4-4.9-3.3c-0.1-0.1-0.2-0.1-0.3-0.1c-0.1,0-0.3,0.1-0.4,0.2
			c-0.5,0.5-0.9,1-1.2,1.6c0,0.1-0.1,0.1-0.1,0.2s0.1,0.2,0.2,0.3C464.8,440.6,466,441.4,467.3,442.2z M471.8,437.7
			c0,0.3-0.3,0.6-0.6,0.6c-0.2,0-0.4-0.1-0.5-0.2c-0.3-0.3-0.7-0.6-0.8-1c-0.1-0.6,0.3-1.1,0.5-1.5c0.3-0.5,0.5-1,0.5-1.5
			c-0.1-0.5-0.5-1.1-1.1-1c-0.4,0.1-0.7,0.5-1,0.8c-0.3,0.4-0.5,0.8-0.8,1.2c-0.5,0.7-0.9,1.4-0.8,2.2c0.2,1,1.2,1.6,2.1,2.1
			c0.8,0.4,1.5,0.8,2.3,1.2c0.3,0.1,0.5,0.3,0.8,0.2c0.2-0.1,0.3-0.2,0.4-0.3c0.5-0.5,1-1.1,1.5-1.6c0.2-0.3,0.5-0.5,0.6-0.9
			c0.1-0.5-0.1-1-0.4-1.3s-0.8-0.6-1.2-0.7c-0.4-0.1-0.7-0.3-1.1-0.3s-0.8,0.2-1,0.5C470.6,436.9,471.9,436.9,471.8,437.7z
			 M475.8,435.4c0.3,0.3,0.7,1.1,1.1,1.2c0.5,0.2,1.1-0.3,1.2-0.7c0.2-0.6-0.1-1.2-0.6-1.6c-0.2-0.2-0.5-0.3-0.6-0.5
			c-0.2-0.4,0.2-0.9,0.5-1.2c0.1-0.1,0.2-0.1,0.3-0.1c0.1,0,0.2,0.1,0.3,0.1c0.4,0.4,0.9,0.7,1.3,1.1c0.1,0.1,0.3,0.3,0.5,0.2
			c0.1,0,0.1-0.1,0.2-0.2c0.2-0.4,0.5-0.8,0.7-1.2c0.1-0.2,0.2-0.3,0.2-0.5s-0.2-0.4-0.3-0.6c-0.8-1-1.6-2-2.6-2.8
			c-0.4-0.3-0.7-0.6-1.2-0.7c-0.4-0.1-1-0.1-1.3,0.2c-0.6,0.5-0.5,1.6,0.2,1.9c0.3,0.2,0.8,0.2,0.9,0.5s-0.1,0.7-0.4,0.9
			s-0.6,0.4-0.7,0.7c-0.6-0.5-1.2-1.1-1.8-1.6c-0.1-0.1-0.2-0.2-0.3-0.2c-0.2,0-0.3,0.1-0.4,0.2c-0.3,0.2-0.6,0.5-0.8,0.8
			c-0.2,0.3-0.3,0.8-0.1,1.1c0.1,0.2,0.3,0.3,0.4,0.5C473.6,433.8,474.8,434.5,475.8,435.4z M482.3,429.2c0.6,0.7,1.2,0.9,1.9,0
			c0-0.1,0.1-0.1,0.1-0.2s-0.1-0.1-0.2-0.2c-0.7-0.5-1.4-1-2.1-1.6c-0.3-0.2-0.6-0.4-0.8-0.8c-0.2-0.3-0.2-0.7,0-1
			c0.2-0.2,0.5-0.3,0.6-0.5c0.2-0.2,0.1-0.6-0.1-0.8c-0.2-0.2-0.4-0.4-0.6-0.6c-0.1-0.1-0.2-0.2-0.4-0.1c-0.1,0-0.1,0.1-0.2,0.1
			c-1.1,0.9-2.2,1.8-3.3,2.7c-0.2,0.1-0.3,0.3-0.3,0.5s0.2,0.3,0.4,0.5c0.4,0.2,0.8,0.4,1.2,0.2c0.1-0.1,0.2-0.2,0.3-0.2
			c0.3-0.2,0.7-0.1,1,0.1C480.8,427.8,481.6,428.5,482.3,429.2z M454.9,453.3c0.5,0.1,0.5-0.7,0.5-1.1c0-0.1,0-0.3,0-0.4
			c0-0.2-0.1-0.3-0.2-0.4c-0.2-0.3-0.4-0.5-0.7-0.6c-0.3-0.1-0.7-0.1-0.9,0.1c-0.2,0.1-0.3,0.3-0.4,0.5c-0.1,0.1-0.2,0.3-0.1,0.4
			c0,0,0.1,0.1,0.2,0.1c0.2,0.1,0.3,0.3,0.5,0.5C454,452.7,454.5,453.2,454.9,453.3z"/>
		<g>
			<path class="st48" d="M450.6,453.2c-0.1-0.1-0.2-0.1-0.3-0.3c-0.1-0.1-0.1-0.2-0.1-0.4c0-0.3,0-0.5,0-0.8c0.1-0.5,0.2-1,0.4-1.5
				c0.4-0.9,1.1-1.8,2.1-2.3c0.5-0.2,1.1-0.3,1.7-0.2c0.5,0.1,1,0.2,1.6,0.4c0.5,0.2,1,0.4,1.5,0.8s0.8,0.9,1,1.5
				c0.3,1.2-0.2,2.3-0.6,3.3c-0.2,0.5-0.5,0.9-0.7,1.4l-0.4,0.7c-0.1,0.1-0.1,0.2-0.2,0.4c-0.1,0.1-0.2,0.2-0.4,0.2
				c-0.2,0-0.3-0.1-0.3-0.1C454.1,455.3,452.3,454.4,450.6,453.2z M450.6,453.2c1.7,1.2,3.6,1.9,5.5,2.7l0.9-2.4
				c0.4-0.9,0.6-1.9,0.4-2.7c-0.2-0.8-0.9-1.4-1.8-1.8s-1.9-0.8-2.7-0.6c-0.9,0.3-1.7,1.1-2.1,1.9c-0.2,0.4-0.4,0.9-0.5,1.4
				c0,0.3-0.1,0.5-0.1,0.8C450.2,452.8,450.4,453.1,450.6,453.2z"/>
			<path class="st48" d="M463.1,448.1c0.1-0.5-0.5-0.9-1-0.7c-0.4,0.2-0.6,0.8-0.9,1.1c-0.4,0.4-1.1,0.3-1.3-0.2
				c-0.3-0.5-0.1-1.1,0.3-1.5c0.2-0.2,0.3-0.4,0.4-0.5c0.1-0.2,0.1-0.4,0-0.5c-0.1-0.2-0.1-0.2-0.3-0.1c-0.2,0.1-0.4,0.2-0.5,0.3
				c-0.4,0.3-0.5,0.7-0.9,1.1c-0.3,0.5-1.9,0.6-1.6-0.8v-0.1l0.1-0.1c0.7-0.5,1.3-1.1,1.8-1.8l0.1,0.6c-0.4-0.4-0.5-0.7-0.7-0.9
				c-0.1-0.1-0.3-0.1-0.5-0.1c-0.3,0.1-0.5,0.3-0.8,0.5s-0.5,0.4-0.8,0.7c-0.3,0.2-0.5,0.5-0.8,0.8c-0.2,0.3-0.5,0.6-0.6,0.7
				c-0.3,0.2,0.7,0.7,1.2,1.1c1.2,0.9,2.4,1.8,3.6,2.6c0.3,0.2,0.7,0.3,1,0.1c0.3-0.1,0.6-0.4,0.8-0.7
				C462.2,449.3,462.9,448.8,463.1,448.1z M463.1,448.1c-0.2,0.7-0.9,1.2-1.3,1.8c-0.2,0.3-0.5,0.6-0.8,0.8
				c-0.4,0.2-0.8,0.1-1.1-0.1c-1.3-0.7-2.6-1.5-3.9-2.3l-1-0.6c-0.2-0.1-0.4-0.2-0.5-0.4c-0.2-0.2-0.2-0.6-0.1-0.9
				c0.2-0.5,0.5-0.7,0.7-1s0.5-0.6,0.8-0.9s0.6-0.6,0.9-0.8c0.3-0.2,0.7-0.5,1.1-0.6c0.2-0.1,0.5-0.1,0.8-0.1s0.6,0.2,0.8,0.4
				c0.4,0.4,0.5,0.7,0.6,0.9l0.3,0.3l-0.3,0.4c-0.6,0.8-1.3,1.5-2.2,2l0.2-0.2v-0.1c0,0,0,0.1,0.1,0.1h0.1c0.1,0,0.1-0.1,0.2-0.1
				c0.3-0.2,0.6-0.8,1-1.1c0.2-0.2,0.4-0.3,0.7-0.4c0.2,0,0.4-0.1,0.5,0.1c0.2,0.1,0.3,0.3,0.3,0.4c0.1,0.3,0,0.6-0.1,0.9
				c-0.2,0.2-0.4,0.4-0.5,0.6c-0.4,0.3-0.6,0.8-0.4,1.2c0.2,0.4,0.8,0.6,1.1,0.2c0.4-0.3,0.5-0.9,1-1.1
				C462.6,447.1,463.2,447.6,463.1,448.1z"/>
			<path class="st48" d="M464.9,446.2c0.9-1.1,1.6-2.1,2.4-3l0.1,0.5l-1.5-0.7l0.5-0.1l-0.6,0.7l-0.3,0.3c-0.1,0.1-0.2,0.3-0.5,0.4
				s-0.6,0.1-0.8,0c-0.2-0.1-0.3-0.2-0.5-0.3l-0.8-0.5c-0.5-0.3-1-0.7-1.6-1c-0.5-0.4-1-0.6-1.2-0.5c-0.1,0-0.1,0,0,0l0,0
				c0.1,0.2,0.4,0.3,0.6,0.5l0.8,0.5c0.3,0.2,0.5,0.4,0.8,0.6C463.2,444.4,464.1,445.3,464.9,446.2z M464.9,446.2
				c-1-0.7-2-1.4-3-2.1c-0.3-0.2-0.5-0.3-0.8-0.4l-0.8-0.4c-0.3-0.1-0.6-0.3-0.9-0.6c-0.2-0.1-0.3-0.4-0.3-0.8
				c0.1-0.3,0.3-0.6,0.5-0.7c0.5-0.2,0.9-0.1,1.3,0c0.4,0.2,0.6,0.3,0.9,0.5c0.5,0.3,1,0.7,1.6,1l0.8,0.5c0.3,0.2,0.5,0.3,0.4,0.2
				c0,0,0.4-0.3,0.6-0.5l0.7-0.6l0.2-0.2l0.2,0.1l1.4,0.8l0.4,0.2l-0.3,0.3C466.8,444.6,465.8,445.5,464.9,446.2z"/>
			<path class="st48" d="M467.3,442.2c0.6,0.3,1.4,1.2,1.8,0.1c0.2-0.3,0.4-0.6,0.8-0.9c0.1-0.1,0.2-0.1,0.2-0.2
				c0.1-0.1,0.1-0.1,0.1-0.1c0,0.1-0.1-0.1-0.3-0.2c-1.2-0.9-2.5-1.6-3.8-2.3c-0.3-0.2-0.6-0.4-1-0.5L465,438h0.1
				c0,0-0.2,0.1-0.3,0.3c-0.3,0.3-0.5,0.5-0.7,0.8c-0.1,0.1-0.2,0.3-0.3,0.4c-0.1,0.1-0.1,0.1-0.1,0.1s0,0,0,0.1
				C464.8,440.5,466,441.4,467.3,442.2z M467.3,442.2c-1.3-0.8-2.6-1.5-4-2.2c-0.1-0.1-0.2-0.2-0.3-0.4c0-0.2,0.1-0.4,0.1-0.5
				c0.1-0.2,0.2-0.3,0.3-0.5c0.2-0.3,0.4-0.7,0.7-1c0.1-0.1,0.2-0.3,0.5-0.5c0.2-0.1,0.4-0.1,0.6-0.1s0.3,0.1,0.3,0.1
				c0.4,0.2,0.7,0.3,1,0.5c1.4,0.7,2.6,1.7,3.6,2.8l0.2,0.2c0.1,0.1,0.2,0.2,0.1,0.5c-0.1,0.2-0.3,0.2-0.3,0.3
				c-0.1,0-0.2,0.1-0.2,0.1c-0.3,0.2-0.6,0.4-0.8,0.7c-0.1,0.1-0.3,0.3-0.4,0.4c0,0.1-0.2,0.2-0.3,0.1l-0.3-0.1
				C467.9,442.6,467.6,442.4,467.3,442.2z"/>
			<path class="st48" d="M471.8,437.7c0,0.3-0.3,0.6-0.6,0.6c-0.3,0-0.6-0.3-0.8-0.5c-0.2-0.2-0.5-0.5-0.5-0.8
				c-0.1-0.3,0-0.7,0.2-0.9c0.3-0.6,0.7-1.1,0.7-1.7c0.1-0.6-0.3-1.1-0.8-1.2c-0.4,0-0.8,0.6-1.1,1.1c-0.3,0.5-0.7,1.1-1,1.6
				s-0.4,1-0.2,1.4c0.2,0.4,0.6,0.8,1.1,1.1c0.5,0.3,1.1,0.6,1.6,0.9l0.8,0.5c0.3,0.1,0.6,0.3,0.7,0.4c0.1,0.2,0.7-0.5,1.1-0.9
				s1-0.9,1.3-1.3s0.2-1.1-0.2-1.5c-0.4-0.4-1-0.7-1.6-0.9c-0.6-0.2-1.3-0.1-1.6,0.5c-0.2,0.3,0,0.6,0.3,0.8
				C471.6,437.1,471.8,437.4,471.8,437.7z M471.8,437.7c0-0.3-0.3-0.6-0.5-0.8c-0.1-0.1-0.2-0.2-0.3-0.4c-0.1-0.1-0.1-0.3,0-0.5
				c0.2-0.6,1.1-0.8,1.7-0.6c0.6,0.2,1.2,0.4,1.8,0.8c0.3,0.2,0.5,0.5,0.6,0.9c0.1,0.3,0.1,0.8-0.1,1.1c-0.4,0.6-0.8,1-1.2,1.5
				l-0.6,0.7c-0.1,0.1-0.2,0.3-0.4,0.4c-0.2,0.1-0.5,0.2-0.8,0.1c-0.4-0.1-0.7-0.3-1-0.4l-0.9-0.4c-0.6-0.3-1.1-0.5-1.7-0.9
				s-1.2-0.8-1.5-1.6c-0.3-0.8,0-1.6,0.3-2.2c0.4-0.6,0.8-1.1,1.1-1.6c0.2-0.2,0.4-0.5,0.6-0.8c0.2-0.2,0.6-0.5,1.1-0.4
				c0.9,0.1,1.2,1.1,1,1.7c-0.1,0.7-0.6,1.2-0.9,1.7c-0.1,0.3-0.3,0.6-0.2,0.9c0,0.3,0.2,0.6,0.5,0.8c0.2,0.2,0.5,0.4,0.8,0.5
				C471.5,438.3,471.8,438,471.8,437.7z"/>
			<path class="st48" d="M475.8,435.4c0.4,0.4,0.6,0.8,1,1.2c0.5,0.3,1-0.1,1.2-0.6s0-1-0.3-1.4c-0.2-0.2-0.4-0.3-0.6-0.4
				c-0.2-0.2-0.4-0.5-0.3-0.8s0.3-0.5,0.5-0.7c0.1-0.1,0.2-0.2,0.4-0.3c0.3-0.1,0.4,0.1,0.5,0.2l1.2,1c0.1,0.1,0.2,0.2,0.3,0.2
				c0.1,0,0,0,0,0s0.1-0.1,0.1-0.3l0.2-0.3c0.2-0.4,0.6-1.1,0.5-1.1c0-0.1-0.2-0.3-0.4-0.5l-0.5-0.6c-0.3-0.4-0.7-0.7-1.1-1.1
				c-0.7-0.7-1.5-1.5-2.2-1.4c-0.2,0-0.3,0-0.5,0.1c-0.1,0.1-0.2,0.2-0.2,0.3c-0.1,0.3,0.1,0.7,0.3,0.8c0.2,0.1,0.5,0.1,0.8,0.4
				c0.2,0.1,0.3,0.4,0.3,0.6s-0.1,0.5-0.2,0.6c-0.2,0.3-0.5,0.5-0.7,0.6s-0.4,0.3-0.4,0.4l-0.2,0.5l-0.4-0.3l-1.8-1.8
				c-0.1-0.2-0.5,0.2-0.8,0.4c-0.3,0.3-0.6,0.6-0.6,1s0.3,0.7,0.6,1c0.3,0.3,0.7,0.5,1,0.8C474.4,434.3,475.2,434.8,475.8,435.4z
				 M475.8,435.4c-0.6-0.6-1.4-1-2.1-1.5c-0.4-0.2-0.7-0.5-1.1-0.7c-0.3-0.2-0.7-0.6-0.7-1.1s0.2-0.9,0.6-1.2
				c0.2-0.2,0.3-0.3,0.5-0.5c0.1-0.1,0.2-0.2,0.4-0.2c0.2,0,0.4,0,0.5,0.1l2,1.7l-0.5,0.1c0.1-0.4,0.4-0.6,0.6-0.8
				c0.2-0.2,0.4-0.3,0.4-0.4c0.1-0.2,0-0.1,0-0.2c-0.1-0.1-0.3-0.1-0.6-0.2c-0.7-0.3-1-1.1-0.9-1.8c0.1-0.4,0.3-0.7,0.6-0.9
				c0.3-0.2,0.7-0.3,1-0.3c0.7,0,1.3,0.3,1.7,0.6c0.4,0.3,0.8,0.7,1.2,1.1c0.4,0.4,0.7,0.8,1,1.2l0.5,0.6c0.2,0.2,0.3,0.4,0.5,0.8
				c0.1,0.2,0.1,0.5,0,0.6c-0.1,0.2-0.2,0.3-0.2,0.4l-0.4,0.7l-0.2,0.3c-0.1,0.1-0.1,0.2-0.3,0.4c-0.2,0.2-0.6,0.2-0.7,0.1
				c-0.2-0.1-0.3-0.2-0.4-0.3l-1.1-1.1c-0.1-0.1-0.2-0.1-0.2-0.1s-0.1,0.1-0.2,0.2c-0.2,0.2-0.3,0.3-0.4,0.6c-0.1,0.2,0,0.4,0.1,0.6
				c0.2,0.2,0.4,0.3,0.6,0.5c0.4,0.4,0.5,1,0.3,1.5c-0.1,0.2-0.3,0.4-0.6,0.6c-0.2,0.1-0.5,0.2-0.8,0
				C476.4,436.2,476.2,435.7,475.8,435.4z"/>
			<path class="st48" d="M482.3,429.2c0.3,0.3,0.7,0.7,1.2,0.5c0.2-0.1,0.4-0.2,0.5-0.4c0.1-0.1,0.2-0.2,0.2-0.3
				c0-0.1,0-0.1-0.1-0.2l-2.3-1.5c-0.4-0.2-0.9-0.6-1-1.2c-0.1-0.3-0.1-0.6,0.2-1c0.2-0.3,0.5-0.4,0.5-0.5c0.1-0.1,0.1-0.3-0.2-0.5
				c-0.1-0.1-0.1-0.1-0.2-0.2s-0.2-0.1-0.2-0.1s0,0,0.1,0s0,0,0,0s-0.2,0.1-0.2,0.2c-0.7,0.6-1.4,1.1-2.1,1.7l-1.1,0.8
				c-0.1,0.1-0.1,0.1-0.1,0.2s0.3,0.2,0.4,0.3c0.2,0.1,0.4,0.2,0.5,0.2s0.1,0,0.2-0.1l0.3-0.2c0.3-0.2,0.6-0.1,0.8,0
				c0.2,0.1,0.4,0.2,0.6,0.3C481,428,481.7,428.6,482.3,429.2z M482.3,429.2c-0.6-0.7-1.3-1.3-2.1-1.7c-0.4-0.2-0.9-0.4-1.2-0.2
				l-0.2,0.2c-0.1,0.1-0.3,0.2-0.4,0.2c-0.3,0-0.6-0.1-0.8-0.1c-0.2-0.1-0.4-0.2-0.7-0.4c-0.1-0.1-0.2-0.4-0.1-0.6s0.2-0.3,0.2-0.4
				c0.4-0.4,0.7-0.7,1-1c0.7-0.6,1.4-1.2,2.1-1.8c0.1-0.1,0.1-0.1,0.3-0.2c0.1-0.1,0.2-0.1,0.3-0.1c0.2,0,0.3,0,0.4,0.1
				c0.2,0.1,0.3,0.2,0.4,0.2c0.1,0.1,0.2,0.2,0.3,0.2c0.2,0.2,0.4,0.5,0.5,0.8s0,0.8-0.3,1s-0.5,0.3-0.5,0.3
				c-0.1,0.1-0.1,0.2-0.1,0.4c0,0.3,0.3,0.6,0.6,0.9l2.1,1.8c0.1,0.1,0.2,0.2,0.1,0.4c-0.1,0.1-0.1,0.2-0.2,0.3
				c-0.2,0.2-0.4,0.3-0.6,0.4C483,429.9,482.6,429.6,482.3,429.2z"/>
			<path class="st48" d="M454.9,453.3c0.2,0,0.3-0.1,0.4-0.2s0-0.3,0-0.5c0-0.3,0-0.7-0.1-0.9c-0.1-0.2-0.4-0.4-0.6-0.5
				s-0.4-0.1-0.5-0.1s-0.2,0.1-0.5,0.3c-0.1,0.1-0.1,0.2-0.2,0l0,0c0.1,0.1,0.2,0.1,0.2,0.2c0.2,0.3,0.3,0.6,0.5,0.8
				C454.4,453,454.6,453.2,454.9,453.3z M454.9,453.3c-0.6-0.2-1.1-0.8-1.6-1.1c-0.1,0-0.1,0-0.2-0.1s-0.2-0.1-0.4-0.2
				c-0.1-0.2-0.1-0.4-0.1-0.5s0.1-0.2,0.1-0.3c0.1-0.1,0.2-0.3,0.3-0.5c0.2-0.2,0.4-0.3,0.6-0.4c0.5-0.1,0.9,0.1,1.3,0.3
				c0.3,0.3,0.5,0.6,0.5,1s-0.1,0.7-0.2,1c0,0.2-0.1,0.3-0.2,0.5C455.2,453.3,455,453.4,454.9,453.3z"/>
		</g>
	</g>
	<path class="st45" d="M466.6,417.5c0-0.1,0-0.1,0-0.2c0-0.2,0-0.4,0-0.7c0-0.2,0-0.4,0.2-0.6c0.1-0.1,0.2-0.1,0.2-0.2
		c0.1-0.1,0.2-0.1,0.2-0.2c0.2-0.1,0.5-0.1,0.8,0c0.1,0,0.1,0.1,0.2,0.1c0.1,0.1,0.1,0.2,0.1,0.3c0,0.2,0,0.3,0,0.5
		c0,0.1-0.1,0.2-0.2,0.3c-0.1,0.1-0.1,0.2-0.2,0.3c-0.1,0.1-0.2,0.2-0.3,0.3c-0.2,0.1-0.3,0.3-0.5,0.3
		C466.9,417.7,466.7,417.7,466.6,417.5z"/>
	<path class="st45" d="M471.9,414c0-0.1,0-0.1,0-0.2c0-0.2,0-0.4,0-0.7c0-0.2,0-0.4,0.2-0.6c0.1-0.1,0.2-0.1,0.2-0.2
		c0.1-0.1,0.2-0.1,0.2-0.2c0.2-0.1,0.5-0.1,0.8,0c0.1,0,0.1,0.1,0.2,0.1c0.1,0.1,0.1,0.2,0.1,0.3c0,0.2,0,0.3,0,0.5
		c0,0.1-0.1,0.2-0.2,0.3c-0.1,0.1-0.1,0.2-0.2,0.3c-0.1,0.1-0.2,0.2-0.3,0.3c-0.2,0.1-0.3,0.3-0.5,0.3
		C472.2,414.2,471.9,414.2,471.9,414z"/>
	<path class="st49" d="M419.3,435.6l10.8-7.3c0,0,27.8-19.8,31.1-25.3c3.3-5.5,7.1-6.7,7.1-6.7s-6.5-2-14.5,4.8
		c-8,6.9-24.5,19.2-24.5,19.2S422.2,426.8,419.3,435.6z"/>
	<path class="st49" d="M407.9,464c1.3,0.5,2.5,1.2,3.7,1.8c1,0.4,2,0.8,3.1,1c0.6,0.1,1.2,0.2,1.6-0.2c0.4-0.3,0.4-0.9,0.7-1.3
		c0.2-0.3,0.6-0.5,0.8-0.8c0.6-0.8,0-1.9-0.5-2.7c-0.8-1.2-1.7-2.5-3.1-3c-0.9-0.4-1.9-0.4-2.8-0.3c-2.6,0.3-6.5,2.3-7.1,5.1
		C405.5,463.5,406.7,463.6,407.9,464z"/>
	<path class="st49" d="M469.5,398.1c0.2-0.1,0.3-0.3,0.5-0.4c0.2,0,0.4,0,0.6,0c2.1,0.4,4.2,0.8,6.3,1.2c-2.6,0.9-5.2,1.7-7.5,3.2
		c-1.5,0.9-2.9,2.1-4.1,3.3c-0.1,0.1-0.2,0.2-0.3,0.2c-0.3,0-0.5-0.2-0.5-0.5s0.1-0.5,0.2-0.7C466,402.2,467.5,400,469.5,398.1z"/>
	<path class="st49" d="M426.1,434c0.7-0.7,1.5-1.3,2.2-2c1.5-1.4,3.3-2.9,5.3-2.8c-0.5,1.3-1.1,2.6-1.6,3.9
		c-0.3,0.7-0.6,1.4-0.7,2.2c-0.1,0.7,0,1.4,0,2c0.1,1.9-0.2,3.8-0.7,5.6c-0.1,0.2-0.1,0.4-0.3,0.5c-0.1,0.1-0.3,0-0.5,0
		c-1.3-0.4-1.8-2-1.8-3.3c-0.1-1.3,0.1-2.6,0.4-3.8c-2.1,0.9-4.1,2.4-6.1,3.2C422.3,437.3,424.6,435.4,426.1,434z"/>
	<path class="st49" d="M442.3,458.6c1.6,1.1,3.3,2.2,5,3.2c-5.1,0.3-9.6-3.6-14.6-4.1c-0.1,0,1.6-2.7,1.8-2.9
		c0.6-0.6,1.9-1.7,2.9-1.5c1.1,0.3,1.2,1.5,1.7,2.3C440,456.9,441.1,457.8,442.3,458.6z"/>
	<path class="st49" d="M489.2,427.1c-0.5,1.8-1.4,3.5-2.3,5.1c-1.2,2.1-2.6,4.2-4.1,6.1c-0.8,1-1.7,2.2-1.6,3.5
		c0.8-1.4,1.7-2.7,2.7-3.9c2.3-2.7,5.1-5.1,6.6-8.3c2.3-4.8,0.1-8.4-1-13.1C489.9,420.1,490.2,423.7,489.2,427.1z"/>
</g>
<g>
	<path class="st21" d="M558.3,286.8c0.7-0.5,1.7,0.2,2.4,1c3.5,3.6,6.7,8,10.9,9.7c1.4,0.6,3.3,1.3,3.3,3c0,0.7-0.3,1.3-0.7,1.8
		c-0.5,0.8-1.1,1.5-1.7,2.2c-0.2,0.3-0.5,0.5-0.8,0.6c-0.5,0.1-1-0.1-1.5-0.4c-2.6-1.5-5.4-3-7.2-5.8c-1-1.6-1.7-3.4-2.9-4.9
		c-0.8-0.9-1.9-1.9-2.7-2.8C556.5,289.9,556.1,288.4,558.3,286.8z"/>
	<path class="st22" d="M556.7,289.3c0,0,7.5,6.4,8.3,8.2c0.9,1.8,8.1,6.3,8.1,6.3l-0.8,0.9c0,0-0.6,0.7-1.3,0.3
		c-0.7-0.4-5.6-2.8-7.3-5.4s-2.4-4.4-5.1-7.3S556.7,289.3,556.7,289.3z"/>
	<path class="st23" d="M563.4,328.7c-0.1-0.2-0.1-0.5-0.1-0.7c0.1-0.3,0.4-0.3,0.6-0.4c1.6-0.3,3.2-0.6,4.8-0.8c0.2,0,0.5-0.1,0.7,0
		c0.4,0.1,0.6,0.5,0.9,0.9c2.1,3.8,1.3,8.5,0.3,12.5c-1,3.7-2,7.3-3.2,10.9c-0.1,0.4-0.3,0.8-0.5,1.1c-1.2,1.3-3.8-1-3.9-2.8
		c-0.1-1.4,1.7-2.1,2.2-3.5C566.8,341.6,564.8,333.3,563.4,328.7z"/>
	<path class="st24" d="M599.8,313.3c0.5-3.7,0.9-7.8-0.7-11.3c2.6-0.3,5.3-0.3,7.9-0.2c0.3,0,0.6,0.1,0.9,0.3c0.3,0.2,0.5,0.6,0.6,1
		c1.2,3,1.2,6.4,0.9,9.5c-0.5,5.5-1.9,10.8-3.9,15.6c-0.6,1.3-1.4,2.8-2.7,2.8C593.8,331.4,599.1,318,599.8,313.3z"/>
	<path class="st25" d="M526.8,325.9c0.2-1,0.4-2.1,0.4-3.2c0.1-3.3-1.5-6.6-2.9-9.7c2.6,0,5.1-0.2,7.7-0.6c1.2,2.3,1.5,4.9,1.7,7.4
		c0.3,3.5,0.6,7,0.1,10.2c-0.7,4.2-2.6,7.8-4.9,10.9c-0.1,0.2-0.3,0.4-0.6,0.4s-0.5-0.2-0.7-0.4c-2.6-2.7-4.5-3.5-4-6.9
		C524.1,331.7,526.2,328.8,526.8,325.9z"/>
	<path class="st26" d="M556.9,376.5c2.4-2.6,3.1-6.7,4-10.5c0.1-0.6,0.3-1.2,0.7-1.5c0.3-0.3,0.8-0.3,1.2-0.3
		c1.4-0.1,2.8-0.1,4.2-0.2c0.4,0,0.8,0,1.2,0.2s0.7,0.6,0.9,1c1.1,2,1.3,4.5,0.9,6.6c-0.4,2.1-1.5,4-2.5,5.7c-2.1,3.3-4.5,6.3-7.1,9
		c-2,2-4.3,3.9-7.1,3.5c-1.5-0.2-2.9-1.1-4.3-1.9c-2.3-1.5-4.8-3.1-6.2-5.7C547.2,379.8,553.3,380.6,556.9,376.5z"/>
	<path class="st27" d="M551.9,386.2c1.9-0.2,3.5-1.3,5-2.3c1.1-0.7,2.2-1.4,3-2.5c1.4-1.7,2.2-4.2,4.1-5.2c-0.4,2.5-1.2,4.9-2.5,6.7
		c-1.6,2.1-3.9,3.4-6.1,4.6c-0.4,0.2-0.9,0.5-1.3,0.5c-0.4,0-0.8-0.1-1.2-0.2c-1.7-0.5-6.5-1.5-7.2-3.8c0.9,0.1,1.9,1.2,2.9,1.6
		C549.7,386.1,550.8,386.3,551.9,386.2z"/>
	<path class="st28" d="M601.8,366.9c0.6-2.4,0.7-5.1-0.2-7.6c-0.8-2.3-2.4-4.1-3.3-6.4c-0.6-1.6-0.8-3.2-1-4.9c0-0.2,0-0.4,0-0.6
		c0.1-0.2,0.3-0.3,0.5-0.3c1-0.1,2.1,0.7,3.1,1.1c2.6,1.1,5.2,0.1,7.6-0.8c0.5,1.4-0.4,2.6-0.9,3.8c-0.9,2.3-0.1,5.2,0.8,7.7
		s2,5.2,1.6,7.8c-0.4,2.3-1.8,3.9-3.1,5.6s-2.4,3.8-2,6.2c-0.1-0.4-5.2-2.1-5.7-4.4C598.7,372.1,601.3,368.9,601.8,366.9z"/>
	<path class="st29" d="M600.1,310.4c0,0-0.5,6.3,8.1,9.3c0,0-2.2,8.2-2.7,8.4c0,0-0.8,3.9-4.3,2.7c0,0-3.9-0.3-3.6-5.8
		c0,0,0.3-4.8,0.7-5.4L600.1,310.4z"/>
	<path class="st30" d="M568.9,332.2c-0.1-1.1-0.4-2.3-1-3.3c1.1,0.6,2.1,1.8,2.5,3.1c0.4,1.4,0.3,2.9-0.3,3.9
		c-0.3,0.6-0.7,1-1.2,1.4c-0.1,0.1-0.1-2.1-0.1-2.3C568.9,334.1,569,333.1,568.9,332.2z"/>
	<path class="st30" d="M564,349.3c0-0.1-0.1-0.1,0-0.2c0-0.1,0.1-0.1,0.1-0.1c0.5-0.2,1-0.3,1.4-0.8c0.3-0.4,0.4-0.9,0.8-1.2
		c0,0,0.1-0.1,0.2,0l0.1,0.1c0.3,0.5,0.4,1.1,0.2,1.7c-0.1,0.5-0.3,0.8-0.3,1.3s0.3,0.8-0.3,1C565.4,351.3,564.4,350,564,349.3z"/>
	<path class="st31" d="M530.4,332.2c0-0.2,0.1-0.3,0.2-0.4c0.1,0,0.2,0.1,0.3,0.2c0.6,1,0.4,2.2,0.1,3.2c-0.4,1.3-0.8,2.7-1.8,3.4
		c-0.4,0.3-1.4,0.7-1.6-0.2c-0.1-0.4,1-1.7,1.1-2C529.5,335.2,530,333.7,530.4,332.2z"/>
	<path class="st31" d="M530.5,314.9c0.2,0,0.4,0.1,0.6,0.2c0.1,0.1,0.2,0.3,0.3,0.5c0.2,0.6,0.4,1.1,0.6,1.7c-0.3,0.1-0.7,0-1-0.2
		c-0.9-0.5-2.7-1.2-2.9-2.4C528.7,314.5,529.7,314.7,530.5,314.9z"/>
	<path class="st32" d="M542,383.6c1.6,0.2,3.1,1.6,4.7,2.2c1.9,0.8,3.9,0.6,5.6,0c1.7-0.7,3.3-1.8,4.8-3s3-2.5,3.7-4.5
		c0.3,0.6,0.1,1.3-0.2,1.8c-2,3.4-4.7,6.2-7.8,8c-1.8,1-2.9,0.1-4.8-1C545.9,386.1,543.9,384.9,542,383.6z"/>
	<path class="st33" d="M600.6,353.8c-0.2-0.3-0.5-0.5-0.7-0.7c-0.6-0.7-0.6-1.8-0.7-2.7c0-0.1,0-0.3,0.1-0.4s0.2,0,0.3,0
		c0.6,0.2,1.2,0.5,1.9,0.7c-0.7,0.3-0.8,1.4-0.5,2.2c0.3,0.8,0.8,1.6,1.1,2.4s0.3,1.8-0.3,2.3C601.2,356.4,601.5,354.9,600.6,353.8z
		"/>
	<path class="st33" d="M604.7,354.2c0-0.7,0.3-1.4,0.5-2s0.5-1.2,0.7-1.8c0.1-0.3,0.3-0.6,0.5-0.5c0.3,0.1,0.4,0.4,0.3,0.7
		s-0.2,0.5-0.4,0.7c-0.6,0.7-0.8,1.8-0.7,2.9c0,1.1,0.3,2.1,0.6,3.1C605.1,357,604.6,355.2,604.7,354.2z"/>
	<path class="st33" d="M608.3,365.4c0.1-1.5-0.2-3.2-1.2-4.4c1.3,1,2.2,2.6,2.5,4.3c0.1,0.3,0.1,0.7,0.1,1c-0.1,0.9-1,4.9-2.2,3.9
		C606.9,369.5,608.3,366.4,608.3,365.4z"/>
</g>
<g>
	<path class="st21" d="M554.3,427.5c0.9-0.1,1.4,1,1.7,1.9c1.5,4.7,2.4,10.1,5.5,13.5c1,1.1,2.3,2.6,1.6,4.2c-0.3,0.6-0.9,1-1.4,1.3
		c-0.8,0.5-1.7,0.9-2.5,1.2c-0.3,0.1-0.6,0.3-1,0.2c-0.5-0.1-0.8-0.6-1.2-1c-1.7-2.5-3.4-5.1-3.8-8.4c-0.2-1.9,0-3.8-0.4-5.6
		c-0.3-1.2-0.9-2.5-1.2-3.8C551.4,429.4,551.7,427.9,554.3,427.5z"/>
	<path class="st22" d="M551.8,429c0,0,3.9,9,3.8,11c0,2,4.5,9.3,4.5,9.3l-1.1,0.5c0,0-0.8,0.3-1.3-0.3c-0.5-0.6-3.8-5-4.2-8.1
		s-0.2-5-1.3-8.8C551.1,428.9,551.8,429,551.8,429z"/>
	<path class="st23" d="M540.2,467.2c0-0.2,0.1-0.5,0.3-0.6c0.2-0.2,0.5-0.1,0.7-0.1c1.6,0.5,3.1,0.9,4.7,1.4
		c0.2,0.1,0.4,0.1,0.6,0.3c0.3,0.3,0.3,0.8,0.4,1.2c0.2,4.4-2.6,8.2-5.3,11.3c-2.5,2.9-5.1,5.7-7.7,8.3c-0.3,0.3-0.6,0.6-1,0.8
		c-1.7,0.6-3-2.6-2.3-4.3c0.5-1.3,2.4-1.1,3.5-2.1C537.4,480.3,539.4,471.9,540.2,467.2z"/>
	<path class="st24" d="M579.6,469.7c2.1-3.1,4.3-6.5,4.4-10.5c2.5,0.9,4.9,2.1,7.2,3.4c0.3,0.2,0.6,0.3,0.7,0.6
		c0.2,0.3,0.2,0.7,0.1,1.1c-0.3,3.3-1.8,6.2-3.4,8.9c-2.9,4.7-6.5,8.9-10.4,12.3c-1.1,0.9-2.4,1.9-3.6,1.3
		C566.2,483.2,576.9,473.6,579.6,469.7z"/>
	<path class="st25" d="M508.7,448.4c0.7-0.8,1.3-1.7,1.8-2.6c1.5-2.9,1.6-6.6,1.7-10c2.3,1.1,4.7,2.1,7.1,2.9
		c0.1,2.6-0.9,5.1-1.8,7.4c-1.3,3.2-2.6,6.5-4.5,9.2c-2.5,3.5-5.8,5.8-9.3,7.6c-0.2,0.1-0.5,0.2-0.7,0.1s-0.4-0.4-0.4-0.7
		c-1.1-3.6-2.5-5.2-0.5-7.9C503.7,452.4,506.9,450.7,508.7,448.4z"/>
	<path class="st26" d="M513,507.1c3.3-1.3,5.8-4.7,8.3-7.6c0.4-0.5,0.8-0.9,1.3-1c0.4-0.1,0.8,0.1,1.2,0.3c1.3,0.6,2.5,1.1,3.8,1.7
		c0.4,0.2,0.7,0.3,1,0.7c0.3,0.4,0.3,0.9,0.4,1.3c0.1,2.3-0.8,4.6-2.2,6.3c-1.4,1.7-3.1,2.9-4.8,4c-3.3,2-6.8,3.7-10.4,4.9
		c-2.6,0.9-5.6,1.5-7.9-0.1c-1.2-0.9-2.1-2.3-3-3.6c-1.4-2.3-2.9-4.9-3-7.9C502.9,505.7,508,509.1,513,507.1z"/>
	<path class="st27" d="M504.3,513.5c1.8,0.6,3.7,0.4,5.5,0.2c1.3-0.1,2.6-0.3,3.8-0.8c2-0.9,3.9-2.8,6-2.8c-1.4,2.1-3.2,3.9-5.3,4.9
		c-2.4,1.2-5,1.3-7.5,1.4c-0.5,0-1,0-1.4-0.1c-0.4-0.2-0.7-0.4-1-0.7c-1.3-1.2-5.2-4.3-4.7-6.6c0.7,0.5,1.2,1.9,1.9,2.7
		C502.3,512.5,503.3,513.2,504.3,513.5z"/>
	<path class="st28" d="M557.5,518.5c1.6-1.9,2.9-4.3,3.2-6.9c0.3-2.4-0.3-4.8-0.1-7.2c0.2-1.7,0.7-3.3,1.3-4.8
		c0.1-0.2,0.1-0.4,0.3-0.5s0.4-0.1,0.6,0c1,0.4,1.6,1.5,2.3,2.4c1.8,2.1,4.6,2.4,7.1,2.6c-0.1,1.5-1.6,2.1-2.6,3
		c-1.8,1.6-2.4,4.6-2.7,7.2c-0.3,2.7-0.6,5.6-2.1,7.6c-1.3,1.9-3.4,2.7-5.3,3.6s-3.9,2.3-4.6,4.6c0.1-0.4-3.7-4.2-3.1-6.4
		C552.4,521.8,556.2,520,557.5,518.5z"/>
	<path class="st29" d="M581.2,467.3c0,0-3.2,5.5,3.1,11.9c0,0-5.7,6.3-6.2,6.3c0,0-2.4,3.1-5.1,0.5c0,0-3.3-2-0.7-6.8
		c0,0,2.4-4.2,3-4.5L581.2,467.3z"/>
	<path class="st30" d="M543.6,472.8c0.4-1.1,0.7-2.2,0.6-3.4c0.7,1,1.1,2.5,0.8,3.9c-0.2,1.4-1,2.7-2,3.4c-0.5,0.4-1.1,0.6-1.7,0.7
		c-0.1,0,0.8-1.9,0.9-2.1C542.7,474.5,543.2,473.7,543.6,472.8z"/>
	<path class="st30" d="M531.6,486c0-0.1,0-0.2,0.1-0.2c0,0,0.1,0,0.2,0c0.5,0.1,1.1,0.2,1.6-0.1c0.4-0.2,0.8-0.7,1.2-0.7
		c0.1,0,0.1,0,0.2,0c0,0,0,0.1,0,0.2c0,0.6-0.2,1.2-0.5,1.6s-0.6,0.6-0.9,1.1c-0.3,0.5-0.1,0.9-0.7,0.8
		C531.9,488.4,531.6,486.7,531.6,486z"/>
	<path class="st31" d="M509.1,455.6c0.1-0.1,0.2-0.3,0.4-0.2c0.1,0,0.2,0.2,0.2,0.4c0.1,1.1-0.7,2.1-1.4,2.9c-0.9,1-1.9,2.1-3.1,2.3
		c-0.5,0.1-1.5,0-1.3-0.9c0.1-0.4,1.6-1.1,1.9-1.3C507,457.9,508.1,456.9,509.1,455.6z"/>
	<path class="st31" d="M516.9,440.1c0.2,0.1,0.3,0.2,0.4,0.5c0.1,0.2,0,0.4,0,0.6c-0.1,0.6-0.1,1.2-0.2,1.8c-0.3,0-0.6-0.3-0.8-0.6
		c-0.5-0.8-1.9-2.3-1.5-3.5C515.5,439,516.2,439.7,516.9,440.1z"/>
	<path class="st32" d="M496.5,506.8c1.4,0.9,2.1,2.8,3.2,4.1c1.3,1.5,3.2,2.3,5,2.5c1.9,0.2,3.7-0.1,5.6-0.5s3.8-0.9,5.3-2.4
		c0,0.7-0.5,1.2-1,1.5c-3.3,2.2-6.9,3.5-10.6,3.7c-2.1,0.1-2.6-1.2-3.9-3C498.9,510.8,497.7,508.8,496.5,506.8z"/>
	<path class="st33" d="M562.3,506.3c-0.1-0.3-0.2-0.6-0.3-0.9c-0.2-0.9,0.2-1.9,0.6-2.7c0.1-0.1,0.1-0.3,0.3-0.3
		c0.1,0,0.2,0.1,0.3,0.2c0.4,0.5,0.9,1,1.3,1.5c-0.7,0-1.3,0.9-1.4,1.7s0,1.8-0.1,2.6c-0.1,0.9-0.5,1.7-1.3,1.9
		C561.7,508.9,562.6,507.7,562.3,506.3z"/>
	<path class="st33" d="M565.8,508.4c0.4-0.6,0.9-1.1,1.4-1.6c0.5-0.4,0.9-0.9,1.4-1.3c0.2-0.2,0.5-0.4,0.7-0.2
		c0.2,0.2,0.1,0.6,0,0.8c-0.2,0.2-0.4,0.3-0.7,0.4c-0.8,0.4-1.5,1.3-1.9,2.2c-0.4,1-0.6,2-0.8,3.1
		C564.9,511.2,565.2,509.4,565.8,508.4z"/>
	<path class="st33" d="M564,520.1c0.8-1.3,1.2-3,0.9-4.5c0.7,1.5,0.8,3.3,0.4,4.9c-0.1,0.3-0.2,0.6-0.4,0.9
		c-0.4,0.7-3.1,3.9-3.7,2.5C560.9,523.1,563.5,521,564,520.1z"/>
</g>
<g>
	<path class="st0" d="M296.6,212.5c5.9-3.2,12.2-5.7,18.7-7.6c1.6-0.5,3.2-0.9,4.9-1.4c1.6-0.4,3.3-0.8,4.9-1.2s3.3-0.7,5-1l2.5-0.4
		c0.8-0.1,1.7-0.2,2.5-0.4c1.7-0.2,3.4-0.4,5-0.6l5.1-0.3c0.8-0.1,1.7-0.1,2.5-0.1h2.5h2.5c0.8,0,1.7,0.1,2.5,0.1l5.1,0.4
		c1.7,0.2,3.3,0.5,5,0.8l2.5,0.4c0.8,0.2,1.6,0.4,2.5,0.6c1.6,0.4,3.3,0.9,4.9,1.3c-1.7-0.1-3.4-0.3-5-0.5l-2.5-0.3l-2.5-0.1
		c-1.7-0.1-3.3-0.2-5-0.3h-5c-6.6,0.1-13.3,0.5-19.8,1.5c-0.8,0.1-1.6,0.2-2.5,0.3l-2.5,0.4c-1.6,0.3-3.3,0.5-4.9,0.9
		c-1.6,0.3-3.3,0.6-4.9,1l-4.9,1.1C309.4,208.6,303,210.4,296.6,212.5z"/>
</g>
<path class="st18" d="M332.8,132c0,0-3.2,0.3-9.4,4.8s-14.2,11.8-14.2,11.8s-5.6,5.2-5.3,7c0.4,1.8,8.6,5.5,8.6,5.5l30.3,9.1
	c0,0,45,28.5,40.7,39.3s0.8-2.5,0.8-2.5l1-4.2v-6.1l-0.5-4l-1.1-3.2l-2.1-5.6l-4.3-6.9l-3-5.8l-8-9.8l-9.3-9"/>
<g>
	<g>
		<path class="st0" d="M389.7,137.5c1.9,6.1,3.3,12.5,4.4,18.9s1.8,12.8,2,19.3c0.1,6.5-0.1,13-1.5,19.5c-0.7,3.2-1.7,6.4-3.1,9.3
			c-1.4,2.9-3.3,5.7-5.9,7.7c2.2-2.4,3.8-5.1,4.9-8.2c1.2-2.9,1.9-6.1,2.4-9.2c0.2-1.6,0.4-3.1,0.7-4.7c0.1-1.6,0.3-3.2,0.3-4.8
			c0.2-3.2,0.2-6.4,0.1-9.6c-0.2-6.4-0.8-12.8-1.5-19.2C391.7,150.3,390.8,143.9,389.7,137.5z"/>
		<path class="st0" d="M389.7,137.5c2.2,6.1,3.8,12.5,5.1,18.9c1.3,6.4,2.1,12.9,2.4,19.5c0.2,6.5,0.1,13.2-1.3,19.7
			c-0.7,3.3-1.7,6.5-3.2,9.6s-3.4,6-6.3,8.2l-2-2.2c2.1-2.2,3.6-4.8,4.7-7.7c1.2-2.9,1.9-5.9,2.4-9l0.7-4.7l0.4-4.7
			c0.2-3.2,0.3-6.3,0.2-9.5c-0.1-6.3-0.5-12.7-1.1-19.1c-0.4-3.3-0.7-6.6-1-9.8C390.5,143.6,390.2,140.5,389.7,137.5z M389.7,137.5
			c0.5,3.3,1.1,6.6,1.8,9.7c0.6,3.1,1.3,6.1,1.8,9.2c0.9,6.4,1.6,12.7,1.9,19.2c0.2,3.2,0.2,6.5,0.1,9.7l-0.3,4.9l-0.6,4.8
			c-0.5,3.2-1.2,6.5-2.5,9.6c-1.1,3.1-2.9,6.2-5.2,8.6l-2-2.2c2.3-1.8,4.1-4.4,5.5-7.1c1.4-2.8,2.3-5.8,3-8.9
			c1.4-6.2,1.7-12.6,1.7-19.1c-0.1-6.4-0.6-12.9-1.5-19.3C392.6,150.2,391.3,143.8,389.7,137.5z"/>
	</g>
</g>
<g>
	<g>
		<path class="st0" d="M367.3,289c-1.7-6.2-2.9-12.6-3.8-19s-1.4-12.9-1.4-19.4c0.1-6.5,0.5-13,2.1-19.4c0.8-3.2,1.9-6.3,3.4-9.2
			s3.5-5.6,6.1-7.5c-2.3,2.3-4,5-5.2,8c-1.3,2.9-2.1,6-2.7,9.1c-0.3,1.6-0.5,3.1-0.8,4.7c-0.2,1.6-0.4,3.2-0.5,4.8
			c-0.3,3.2-0.4,6.4-0.4,9.6c0,6.4,0.4,12.8,0.9,19.2C365.7,276.2,366.4,282.6,367.3,289z"/>
		<path class="st0" d="M367.3,289c-1.9-6.2-3.2-12.6-4.3-19c-1-6.4-1.6-13-1.7-19.5c0-6.5,0.4-13.1,2-19.6c0.8-3.2,1.9-6.4,3.4-9.3
			c1.5-3,3.6-5.8,6.4-7.9l1.3,1.5c-2.2,2.2-3.9,4.8-5,7.7c-1.3,2.9-2.1,5.9-2.7,9l-0.8,4.7l-0.5,4.7c-0.3,3.2-0.4,6.3-0.5,9.5
			c-0.1,6.4,0.2,12.8,0.6,19.1C366.1,276.4,366.6,282.9,367.3,289z M367.3,289c-0.8-6.6-1.9-12.9-2.8-19c-0.6-6.4-1.1-12.8-1.2-19.2
			c-0.1-3.2,0-6.5,0.3-9.7l0.5-4.8l0.8-4.8c0.6-3.2,1.4-6.4,2.7-9.4c1.2-3,3-6,5.4-8.3l1.3,1.5c-2.5,1.8-4.4,4.4-5.8,7.1
			c-1.5,2.8-2.6,5.8-3.3,8.9c-1.6,6.2-2,12.7-2.2,19.1c-0.1,6.4,0.3,12.9,1.1,19.4C364.7,276.3,365.8,282.7,367.3,289z"/>
	</g>
</g>
<g>
	<g>
		<g>
			<defs>
				<path id="SVGID_17_" d="M380.8,205.4c2.6-1.9,6.3-0.5,8.1,2.5c1.8,3,2,6.9,1.4,10.5c-0.1,0.8-0.3,1.6-0.8,2.3s-1.2,1.1-2,1.4
					c-2.4,0.9-5.3,1-7.3-0.9c-0.3-0.3-0.6-0.7-1-0.9c-1.3-0.8-2.9-0.1-3.4-2.4c-0.3-1.4,0.4-2.1,0.9-3.2
					C378.2,211.5,377.9,207.5,380.8,205.4z"/>
			</defs>
			<clipPath id="SVGID_18_">
				<use xlink:href="#SVGID_17_"  style="overflow:visible;"/>
			</clipPath>
		</g>
	</g>
</g>
<g>
	<path class="st0" d="M456.9,242.5c-5.6,0.4-11.3,0.4-17,0c-5.6-0.3-11.3-0.9-16.9-1.9s-11.2-2.2-16.5-4.2c-2.7-1-5.3-2.1-7.8-3.5
		s-4.9-3.1-6.8-5.2c2.3,1.7,4.8,2.9,7.4,3.9s5.2,1.8,7.9,2.6c2.7,0.7,5.4,1.4,8.1,1.9c2.7,0.6,5.5,1.1,8.2,1.5
		c2.7,0.5,5.5,0.9,8.3,1.3c2.8,0.4,5.5,0.8,8.3,1.2C445.7,241,451.3,241.7,456.9,242.5z"/>
</g>
<g>
	<path class="st0" d="M431.9,145.2c-1,5.2-2.4,10.2-4.1,15.2c-0.8,2.5-1.8,5-2.7,7.4c-1,2.4-2,4.9-3.1,7.3c-1.1,2.4-2.3,4.7-3.5,7.1
		c-1.3,2.3-2.6,4.6-4.1,6.8c-3,4.4-6.3,8.6-10.5,11.8c3.4-4.1,6-8.5,8.5-13s4.8-9.2,6.9-13.9c2.2-4.7,4.3-9.5,6.3-14.3
		C427.7,154.8,429.8,150,431.9,145.2z"/>
</g>
<g>
	<path class="st0" d="M338.8,136.9c5.8,3,11.2,6.7,16.4,10.8c5.1,4.1,10,8.6,14.3,13.5c4.3,5,8.2,10.4,11.1,16.4
		c1.4,3,2.7,6.1,3.5,9.3s1.3,6.5,1.2,9.8c-1.2-6.4-3.6-12.4-6.7-18c-1.6-2.8-3.3-5.4-5.3-8c-1.9-2.6-3.9-5.1-6-7.5s-4.3-4.8-6.6-7
		c-2.3-2.3-4.6-4.5-7-6.7C348.9,145.1,343.9,140.9,338.8,136.9z"/>
</g>
<g>
	<path class="st0" d="M331.1,275.2c1.1-5.9,2.9-11.7,5.1-17.3c0.5-1.4,1.1-2.8,1.7-4.2l0.9-2.1l1-2c1.3-2.7,2.8-5.4,4.2-8
		c3.1-5.2,6.7-10.1,10.7-14.6c4.1-4.5,8.8-8.4,14-11.4c-4.5,4-8.5,8.3-12.2,12.9c-1.7,2.4-3.6,4.7-5.2,7.2c-0.8,1.2-1.7,2.4-2.4,3.7
		l-2.3,3.8c-1.5,2.6-3,5.1-4.3,7.7l-1.1,2l-1,2c-0.6,1.3-1.3,2.6-2,4C335.8,264.2,333.3,269.6,331.1,275.2z"/>
</g>
<g>
	<path class="st0" d="M413.7,287.3c-5.8-3.8-11.1-8.3-16.1-13.1c-2.5-2.4-4.9-5-7.1-7.6c-2.3-2.7-4.4-5.4-6.4-8.3
		c-2-2.9-3.8-5.9-5.4-9.1c-1.6-3.1-2.9-6.4-3.9-9.8c-2-6.7-2.3-14.1-0.2-20.8c-0.9,6.9,0.1,13.7,2.5,20.1c1.2,3.2,2.5,6.3,4.2,9.2
		c1.6,3,3.4,5.9,5.3,8.7c3.8,5.6,8.2,10.9,12.7,16C403.9,277.7,408.7,282.6,413.7,287.3z"/>
</g>
<path class="st39" d="M376.2,493.3c4.2,2.4,8.5,4.6,12.9,6.5c1.5,0.6,3.1,1.3,4.7,1.2c1,0,2-0.3,2.9-0.5c2.9-0.5,5.9-0.1,8.9,0.3
	c3.2,0.4,6.3,0.9,9.5,1.5c0.5,0.1,1,0.2,1.4-0.1c0.2-0.2,0.3-0.5,0.4-0.7c0.5-1.3,0.9-2.7,1-4.1c0.1-0.8,0-1.5,0.2-2.3
	c0.2-0.9,0.8-1.7,0.6-2.5"/>
<path class="st50" d="M415.9,501.9c0.5-0.1,0.9-0.1,1.4-0.2c0.1,0,0.2,0,0.3-0.1c0,0,0.1-0.1,0.1-0.2c0.7-1.8,0.6-3.9,1.4-5.7
	c0.2-0.5,0.5-1,0.5-1.6c0-0.8-0.7-1.6-0.8-2.4"/>
<g>
	<g>
		<g>
			<g>
				<defs>
					<path id="SVGID_19_" d="M377.3,216.5c15.4,1,18.6-34.3,18.6-34.3c3.1-38.3-8.1-63.1-8.1-63.1c-0.6-0.5-3.7-0.5-6.2-0.5
						c-1.5,0.1-8.3,0.9-12.1,1.5c-0.2,0-0.5,0.1-0.7,0.1c-0.2,0-0.5,0.1-0.7,0.1c-13.9,1.5-32.9,6-30.8,8.1c4.4,4.7,9.4,8.5,14,13.1
						c1.4,1.3,2.9,2.5,4.3,3.9c3.8,3.3,7.1,6.9,10.6,10.5c3.8,4.1,7.6,8.2,10.4,13c2.1,3.7,3.7,7.8,4.6,12c0.7,2.7,1.1,5.4,2.1,8
						c1.2,3.1,2.9,6,3.3,9.2c0.4,3.4-0.9,6.8-2.2,10.1c-0.8,2.2-1.8,4.4-2.6,6.5c-0.3,0.9-0.8,1.8-1.7,1.9"/>
				</defs>
				
					<radialGradient id="SVGID_20_" cx="378.2589" cy="308.6931" r="40.6312" gradientTransform="matrix(-0.9999 -1.349278e-02 1.349278e-02 -0.9999 740.5115 481.1587)" gradientUnits="userSpaceOnUse">
					<stop  offset="0.352" style="stop-color:#76C3E5"/>
					<stop  offset="1" style="stop-color:#136C9E"/>
				</radialGradient>
				<use xlink:href="#SVGID_19_"  style="overflow:visible;fill:url(#SVGID_20_);"/>
				<clipPath id="SVGID_21_">
					<use xlink:href="#SVGID_19_"  style="overflow:visible;"/>
				</clipPath>
			</g>
		</g>
		
			<radialGradient id="SVGID_22_" cx="378.2589" cy="308.6931" r="40.6312" gradientTransform="matrix(-0.9999 -1.349278e-02 1.349278e-02 -0.9999 740.5115 481.1587)" gradientUnits="userSpaceOnUse">
			<stop  offset="0.352" style="stop-color:#76C3E5"/>
			<stop  offset="1" style="stop-color:#136C9E"/>
		</radialGradient>
		<path class="st51" d="M377.3,216.5c15.4,1,18.6-34.3,18.6-34.3c3.1-38.3-8.1-63.1-8.1-63.1c-0.6-0.5-3.7-0.5-6.2-0.5
			c-1.5,0.1-8.3,0.9-12.1,1.5c-0.2,0-0.5,0.1-0.7,0.1c-0.2,0-0.5,0.1-0.7,0.1c-13.9,1.5-32.9,6-30.8,8.1c4.4,4.7,9.4,8.5,14,13.1
			c1.4,1.3,2.9,2.5,4.3,3.9c3.8,3.3,7.1,6.9,10.6,10.5c3.8,4.1,7.6,8.2,10.4,13c2.1,3.7,3.7,7.8,4.6,12c0.7,2.7,1.1,5.4,2.1,8
			c1.2,3.1,2.9,6,3.3,9.2c0.4,3.4-0.9,6.8-2.2,10.1c-0.8,2.2-1.8,4.4-2.6,6.5c-0.3,0.9-0.8,1.8-1.7,1.9"/>
	</g>
</g>
<linearGradient id="SVGID_23_" gradientUnits="userSpaceOnUse" x1="287.4467" y1="198.3" x2="386.4313" y2="198.3">
	<stop  offset="0.1453" style="stop-color:#EF5120"/>
	<stop  offset="0.7235" style="stop-color:#FF8666"/>
</linearGradient>
<path class="st52" d="M293.7,183.1c0,0-2.3,7.2-4.8,14.7c-2.5,7.5-1,10.1-1,10.1c5.6-0.3,10.2-2,20.7-6.2
	c10.5-4.2,41.3-7.1,46.9-5.2c5.5,2.1,13.1,1.9,19.7,7.6c6.7,5.7,10.9,10.6,10.9,10.6l0.4-1.9l-0.7-2.8l-2.5-3.4l-11.1-9.3
	l-32.8-11.7l-21-3.1l-12.4-0.7"/>
<g>
	<radialGradient id="SVGID_24_" cx="424.3959" cy="207.2025" r="40.1321" gradientUnits="userSpaceOnUse">
		<stop  offset="0" style="stop-color:#ED5A5A"/>
		<stop  offset="0.7486" style="stop-color:#D80909"/>
	</radialGradient>
	<path class="st53" d="M376,206.7c-0.5,2.1,22.2,7.1,26.3,6.9c5.8-0.4,1.6-0.8,7.3-1.4c3.6-0.4,6.6-1.1,10.1-1.9
		c2.5-0.6,6.9-3.8,9.2-4.7c2.9-1,8.8-6.6,11.7-7.6c2.6-1,10.5-7.4,13.3-8.3c3.9-1.4,10.2-26.9,19.5,12.6l0.7,11.2
		c0.6,0.6-0.3,17.6-3.6,17.5c0,0-27.2,7.4-64.7-1.2c0,0-34.5-8.3-31.3-23.3"/>
</g>
<g>
	
		<linearGradient id="SVGID_25_" gradientUnits="userSpaceOnUse" x1="294.7721" y1="244.2045" x2="381.4" y2="244.2045" gradientTransform="matrix(1 0 0 1 0 0.6772)">
		<stop  offset="0.5126" style="stop-color:#06571F"/>
		<stop  offset="0.6106" style="stop-color:#00541A"/>
		<stop  offset="0.8342" style="stop-color:#18602C"/>
		<stop  offset="1" style="stop-color:#04561D"/>
	</linearGradient>
	<path class="st54" d="M381.4,212.5c-6.4-14-39,0-39,0c-35.1,15.5-47.5,35.2-47.5,35.2c-0.5,1.9,0.6,2.9,1,3.9
		c3,7.1,5.7,10.3,8.4,14.2c7,10.3,13.5,17.3,17.2,17.6c6.7,0.6,6.5-2,9.1-6.3c0.5-2,1-3.9,1.5-5.9c0.8-3,1.5-6.1,2.7-9
		c3-7.6,8.6-13.8,12.4-21.1c2.9-5.7,4.9-12.1,9.5-16.6c3.6-3.5,8.5-5.3,12-8.9c1.1-1.1,2-2.4,3.2-3.4s2.8-1.8,4.3-1.5
		c1.6,0.3,3.2,1.7,4.8,1.1"/>
</g>
<g>
	<path class="st55" d="M378,211.9c-1.2,1.8,24.7,20.5,28.6,21.7c5.6,1.6,11.2,3,16.8,4.4c3.5,0.9,7.1,1.7,10.7,2.2
		c2.5,0.3,5,0.5,7.5,0.5c3.1,0.1,6.2,0,9.3,0.1c2.8,0,5.6,0.1,8.5,0.2c4.1,0,7.5,0.4,11.7,0.1l-3.2,10.8c0.4,0.8-6.3,16.4-9.4,15.2
		c0,0-28.1-2.3-60.4-23.2c0,0-29.6-19.6-21.4-32.6"/>
</g>
<radialGradient id="SVGID_26_" cx="385.1209" cy="210.8" r="7.8" gradientUnits="userSpaceOnUse">
	<stop  offset="0.6983" style="stop-color:#F99506"/>
	<stop  offset="1" style="stop-color:#EAD911"/>
</radialGradient>
<circle class="st56" cx="385.1" cy="210.8" r="7.8"/>
<g>
	<path class="st0" d="M464.9,232.2c-6.4,1.5-12.9,2.3-19.5,2.7c-3.3,0.2-6.6,0.3-9.9,0.3c-3.3,0-6.6-0.2-9.9-0.4
		c-3.3-0.3-6.6-0.7-9.8-1.3c-3.3-0.6-6.5-1.3-9.7-2.3c-3.2-1-6.3-2.2-9.2-3.8c-2.9-1.6-5.7-3.4-8.1-5.7c2.8,1.8,5.7,3.2,8.7,4.4
		c3,1.2,6.1,2.1,9.2,2.8c6.3,1.5,12.7,2.3,19.1,2.9c6.4,0.5,12.9,0.7,19.4,0.7C451.8,232.7,458.3,232.5,464.9,232.2z"/>
</g>
</svg>
